<?xml version="1.0" encoding="UTF-8" standalone="no"?>
<!DOCTYPE svg  PUBLIC '-//W3C//DTD SVG 1.1//EN'  'http://www.w3.org/Graphics/SVG/1.1/DTD/svg11.dtd'>
<svg xmlns="http://www.w3.org/2000/svg">
<defs>
<font id="AdelleSans-Bold" horiz-adv-x="583">
<font-face underline-position="-50" font-weight="700" descent="-200" panose-1="2 0 5 3 0 0 0 2 0 4" units-per-em="1000" unicode-range="U+0020-2215" bbox="-160 -274 1041 1089" x-height="521" underline-thickness="50" font-family="AdelleSans" ascent="800" cap-height="724"/>
<missing-glyph horiz-adv-x="1000"/>
<glyph glyph-name="ij" horiz-adv-x="534" unicode="ij" d="M495 684q0 -45 -23.5 -69t-67.5 -24q-43 0 -67 24t-24 69q0 44 24 67t67 23q91 0 91 -90zM293 -223q-82 0 -123 28l11 113q43 -20 82 -20q65 0 65 78v545h151v-562q0 -182 -186 -182zM227 681q0 -44 -24 -68t-67 -24q-44 0 -67.5 24t-23.5 68q0 91 91 91q43 0 67 -23.5 t24 -67.5zM211 521v-521h-151v521h151z"/>
<glyph glyph-name=".notdef" horiz-adv-x="1000"/>
<glyph glyph-name=".null" horiz-adv-x="0"/>
<glyph glyph-name="nonmarkingreturn" horiz-adv-x="333"/>
<glyph glyph-name="space" horiz-adv-x="174" unicode=" "/>
<glyph glyph-name="exclam" horiz-adv-x="290" unicode="!" d="M235 68q0 -80 -89 -80q-90 0 -90 80q0 81 90 81q89 0 89 -81zM209 197h-126l-19 527h164z"/>
<glyph glyph-name="quotedbl" horiz-adv-x="429" unicode='&quot;' d="M379 465h-135v259h135v-259zM185 465h-135v259h135v-259z"/>
<glyph glyph-name="numbersign" horiz-adv-x="607" unicode="#" d="M336 243l16 110h-86l-17 -110h87zM402 0h-103l21 139h-87l-21 -139h-104l21 139h-99l21 104h94l17 110h-100l21 105h94l20 135h104l-20 -135h86l20 135h104l-20 -135h101l-20 -105h-96l-17 -110h101l-20 -104h-96z"/>
<glyph glyph-name="dollar" horiz-adv-x="550" unicode="$" d="M276 594q-89 0 -89 -71q0 -43 31 -66t98 -40q37 -10 60 -18t54 -24.5t48.5 -36.5t30.5 -52.5t13 -74.5q0 -90 -54 -144t-141 -69v-80h-128v80q-165 20 -185 200l132 25q9 -60 35 -87t88 -27q105 0 105 81q0 22 -9.5 38.5t-28 27t-38.5 17.5t-47 15q-10 3 -15 4 q-35 10 -58.5 18.5t-53.5 25t-47.5 37t-30 53.5t-12.5 75q0 80 48.5 132t124.5 69v90h127v-89q74 -9 120 -54.5t52 -133.5l-134 -16q-7 50 -27.5 72.5t-68.5 22.5z"/>
<glyph glyph-name="percent" horiz-adv-x="831" unicode="%" d="M253 -13h-133l438 737h132zM635 76q31 0 44 23t13 74q0 47 -12.5 68t-44.5 21q-58 0 -58 -91q0 -50 13 -72.5t45 -22.5zM630 -12q-89 0 -128.5 48.5t-39.5 127.5q0 88 44 137.5t132 49.5q167 0 167 -174q0 -88 -44.5 -138.5t-130.5 -50.5zM193 463q31 0 44 23t13 74 q0 47 -12.5 68t-44.5 21q-58 0 -58 -91q0 -50 13 -72.5t45 -22.5zM188 375q-89 0 -128.5 48.5t-39.5 127.5q0 88 44 137.5t132 49.5q167 0 167 -174q0 -88 -44.5 -138.5t-130.5 -50.5z"/>
<glyph glyph-name="ampersand" horiz-adv-x="743" unicode="&amp;" d="M295 541q0 -39 27 -90q21 10 32.5 16.5t28 18.5t24 28t7.5 36q0 24 -14.5 38.5t-41.5 14.5t-45 -16.5t-18 -45.5zM315 98q44 0 75 16q-78 73 -157 189q-42 -35 -42 -93q0 -49 32 -80.5t92 -31.5zM540 558q0 -117 -160 -184l-14 -6q48 -68 132 -160q29 54 29 150h133v-16 q0 -117 -65 -206q34 -22 72 -22q19 0 38 6l16 -114q-32 -13 -83 -15q-78 0 -152 48q-66 -51 -196 -51q-120 0 -186.5 58t-66.5 148q0 72 35.5 120.5t110.5 80.5q-35 60 -35 121q0 85 60.5 135t155.5 50q75 0 125.5 -34.5t50.5 -108.5z"/>
<glyph glyph-name="quotesingle" horiz-adv-x="235" unicode="&apos;" d="M185 465h-135v259h135v-259z"/>
<glyph glyph-name="parenleft" horiz-adv-x="363" unicode="(" d="M347 -153h-158q-147 211 -147 433t159 444h156q-74 -108 -114 -212t-40 -229q0 -126 37.5 -225t106.5 -211z"/>
<glyph glyph-name="parenright" horiz-adv-x="363" unicode=")" d="M0 724h158q147 -211 147 -433t-159 -444h-156q74 108 114 212t40 229t-38 225.5t-106 210.5z"/>
<glyph glyph-name="asterisk" horiz-adv-x="477" unicode="*" d="M271 755l18 -122l113 27l21 -72l-107 -54l72 -108l-57 -45l-98 92l-95 -95l-58 46l71 110l-109 53l22 72l115 -28l20 124h72z"/>
<glyph glyph-name="plus" horiz-adv-x="570" unicode="+" d="M344 121h-120v143h-133v119h133v139h120v-139h134v-119h-134v-143z"/>
<glyph glyph-name="comma" horiz-adv-x="244" unicode="," d="M-7 -125l63 257h158l-98 -269z"/>
<glyph glyph-name="hyphen" horiz-adv-x="313" unicode="-" d="M291 227h-271v129h271v-129z"/>
<glyph glyph-name="period" horiz-adv-x="251" unicode="." d="M219 76q0 -88 -93 -88t-93 88q0 89 93 89t93 -89z"/>
<glyph glyph-name="slash" horiz-adv-x="443" unicode="/" d="M147 -92h-138l281 847h137z"/>
<glyph glyph-name="zero" horiz-adv-x="585" unicode="0" d="M293 106q59 0 80 58t21 202q0 141 -19.5 196.5t-77.5 55.5q-60 0 -82.5 -57t-22.5 -198q0 -142 20.5 -199.5t80.5 -57.5zM289 -12q-143 0 -200.5 93t-57.5 283q0 187 62 280t206 93q143 0 199 -90.5t56 -274.5q0 -195 -60 -289.5t-205 -94.5z"/>
<glyph glyph-name="one" horiz-adv-x="442" unicode="1" d="M343 0h-150v544q-23 -12 -75 -21.5t-80 -9.5l-7 128q143 11 209 83h103v-724z"/>
<glyph glyph-name="two" horiz-adv-x="542" unicode="2" d="M277 737q108 0 163 -48t55 -139q0 -73 -34 -131.5t-122 -155.5l-118 -130v-3h285v-130h-462v126l155 181q92 105 114 140q30 49 30 95q0 76 -81 76q-46 0 -68 -26.5t-31 -80.5l-136 23q12 103 78.5 153t171.5 50z"/>
<glyph glyph-name="three" horiz-adv-x="555" unicode="3" d="M20 175l135 25q6 -48 29.5 -71.5t72.5 -23.5q46 0 74 27t28 81q0 56 -29 80t-88 24h-71v114h47q63 0 97 29t34 81q0 39 -18.5 59.5t-63.5 20.5t-67.5 -21.5t-32.5 -68.5l-130 26q36 180 244 180q105 0 161 -46t56 -130q0 -66 -40 -109.5t-96 -61.5v-4q151 -36 151 -181 q0 -100 -69.5 -158.5t-186.5 -58.5q-96 0 -161 44.5t-76 142.5z"/>
<glyph glyph-name="four" horiz-adv-x="597" unicode="4" d="M160 284h191v302zM497 0h-146v162h-324v107l287 455h184v-440h81v-122h-82v-162z"/>
<glyph glyph-name="five" horiz-adv-x="560" unicode="5" d="M64 338l27 386h381v-130h-271l-17 -181q55 48 138 48q86 0 139 -54.5t53 -166.5q0 -118 -70 -185t-189 -67q-95 0 -159 44t-77 142l131 27q13 -94 105 -94q47 0 78 32t31 95q0 111 -96 111q-58 0 -106 -48z"/>
<glyph glyph-name="six" horiz-adv-x="578" unicode="6" d="M200 287q1 -41 5.5 -70.5t14.5 -57t30.5 -42t50.5 -14.5q44 0 66.5 32t22.5 90q0 55 -19.5 81t-65.5 26q-52 0 -105 -45zM539 569l-134 -37q-8 49 -28 68.5t-57 19.5q-43 0 -73 -35.5t-42.5 -86t-12.5 -108.5q62 55 156 55q89 0 142 -53.5t53 -155.5q0 -122 -68 -185 t-178 -63q-73 0 -123 26.5t-77 77t-38.5 111.5t-11.5 141q0 55 7 106t27 105t50.5 93t82.5 64t118 25q173 0 207 -168z"/>
<glyph glyph-name="seven" horiz-adv-x="531" unicode="7" d="M230 -1h-160l279 595h-318v130h475v-116z"/>
<glyph glyph-name="eight" horiz-adv-x="569" unicode="8" d="M308 445q76 45 76 111q0 72 -90 72q-40 0 -64.5 -18.5t-24.5 -50.5q0 -37 25 -62.5t78 -51.5zM254 315q-85 -49 -85 -122q0 -90 109 -90q53 0 81 25t28 64q0 25 -10 44t-32.5 34t-40 23.5t-50.5 21.5zM409 394q74 -34 106.5 -78t32.5 -118q0 -90 -74.5 -150t-198.5 -60 q-125 0 -189.5 54t-64.5 135q0 131 139 194q-111 53 -111 167q0 93 68 146t180 53t172 -45.5t60 -123.5q0 -59 -29.5 -98t-90.5 -76z"/>
<glyph glyph-name="nine" horiz-adv-x="577" unicode="9" d="M380 435q-2 46 -6 74t-14 56.5t-30 42t-51 13.5q-89 0 -89 -120q0 -111 86 -111q56 0 104 45zM31 160l134 40q9 -51 31 -74t64 -23q62 0 94.5 64.5t34.5 164.5q-59 -52 -157 -52q-90 0 -142.5 53.5t-52.5 158.5q0 120 70 182.5t181 62.5q70 0 119.5 -26.5t76 -77 t38 -111.5t11.5 -141q0 -393 -277 -393q-194 0 -225 172z"/>
<glyph glyph-name="colon" horiz-adv-x="266" unicode=":" d="M226 419q0 -88 -93 -88t-93 88q0 89 93 89t93 -89zM226 76q0 -88 -93 -88t-93 88q0 89 93 89t93 -89z"/>
<glyph glyph-name="semicolon" horiz-adv-x="260" unicode=";" d="M240 419q0 -88 -93 -88t-93 88q0 89 93 89t93 -89zM-5 -125l63 257h158l-98 -269z"/>
<glyph glyph-name="less" horiz-adv-x="570" unicode="&lt;" d="M460 83l-391 137v142l391 140v-125l-261 -85l261 -86v-123z"/>
<glyph glyph-name="equal" horiz-adv-x="570" unicode="=" d="M478 316h-386v120h386v-120zM478 127h-386v120h386v-120z"/>
<glyph glyph-name="greater" horiz-adv-x="570" unicode="&gt;" d="M488 222l-391 -137v122l261 85l-261 85v125l391 -140v-140z"/>
<glyph glyph-name="question" horiz-adv-x="547" unicode="?" d="M317 68q0 -80 -89 -80t-89 80q0 81 89 81t89 -81zM305 197h-150v183q199 16 199 142q0 87 -87 87q-47 0 -72 -25t-34 -79l-147 23q12 98 79 152t182 54q104 0 171 -50.5t67 -163.5q0 -183 -208 -232v-91z"/>
<glyph glyph-name="at" horiz-adv-x="855" unicode="@" d="M491 113v183q-21 23 -58 23q-39 0 -61.5 -31.5t-22.5 -95.5q0 -119 69 -119q39 0 73 40zM620 -60l31 -85q-73 -48 -220 -48q-172 0 -281.5 96.5t-109.5 280.5q0 177 113.5 288t298.5 111q162 0 262 -90t100 -244q0 -129 -51.5 -193.5t-139.5 -64.5q-92 0 -118 51 q-39 -50 -114 -50q-70 0 -108 51t-38 136q0 95 45.5 156.5t121.5 61.5q54 0 86 -35l8 29h81v-263q0 -26 9 -40t35 -14q29 0 48.5 28.5t26 64t6.5 75.5q0 116 -65.5 182.5t-201.5 66.5q-77 0 -136.5 -26t-94 -70t-51.5 -96t-17 -110q0 -147 79.5 -218.5t216.5 -71.5 q94 0 178 41z"/>
<glyph glyph-name="A" horiz-adv-x="709" unicode="A" d="M438 299l-90 280h-4l-89 -280h183zM251 724h192l256 -724h-169l-60 176h-241l-56 -176h-159z"/>
<glyph glyph-name="B" horiz-adv-x="637" unicode="B" d="M228 425h57q31 0 53.5 3.5t44.5 13t34 30t12 50.5q0 37 -17.5 56t-40 23t-63.5 4h-80v-180zM228 119h79q70 0 105 19.5t35 74.5q0 56 -33 75.5t-92 19.5h-94v-189zM338 0h-264v724h287q121 0 170 -47t49 -130q0 -68 -38.5 -110.5t-98.5 -58.5v-2q168 -22 168 -177 q0 -199 -273 -199z"/>
<glyph glyph-name="C" horiz-adv-x="695" unicode="C" d="M372 -12q-334 0 -334 366q0 175 91 279t258 104q128 0 203.5 -64t81.5 -196l-141 -12q-7 77 -41.5 111t-104.5 34q-188 0 -188 -248q0 -131 44 -189t133 -58q72 0 108 33.5t49 96.5l139 -24q-17 -120 -101.5 -176.5t-196.5 -56.5z"/>
<glyph glyph-name="D" horiz-adv-x="724" unicode="D" d="M228 124h76q121 0 173 61.5t52 179.5q0 131 -51 183t-163 52h-87v-476zM311 0h-237v724h254q183 0 271 -91.5t88 -259.5q0 -173 -94 -273t-282 -100z"/>
<glyph glyph-name="E" d="M228 299v-169h323v-130h-477v724h459v-129h-305v-170h287v-126h-287z" unicode="E"/>
<glyph glyph-name="F" horiz-adv-x="553" unicode="F" d="M228 284v-284h-154v724h456v-129h-302v-184h278v-127h-278z"/>
<glyph glyph-name="G" horiz-adv-x="739" unicode="G" d="M569 0l-17 89q-23 -47 -80 -74t-127 -27q-157 0 -232 97.5t-75 264.5q0 180 90.5 283.5t260.5 103.5q125 0 201 -61.5t85 -191.5l-144 -14q-7 65 -40 102.5t-105 37.5q-188 0 -188 -246q0 -130 43.5 -191t139.5 -61q70 0 109 36t39 90v26h-132v113h284v-377h-112z"/>
<glyph glyph-name="H" horiz-adv-x="733" unicode="H" d="M660 724v-724h-155v297h-277v-297h-154v724h154v-294h277v294h155z"/>
<glyph glyph-name="I" horiz-adv-x="302" unicode="I" d="M228 724v-724h-154v724h154z"/>
<glyph glyph-name="J" horiz-adv-x="530" unicode="J" d="M308 199v525h155v-521q0 -215 -228 -215q-101 0 -158.5 47t-61.5 158l148 22q4 -52 18.5 -76.5t55.5 -24.5q37 0 54 19t17 66z"/>
<glyph glyph-name="K" horiz-adv-x="673" unicode="K" d="M227 724v-310l281 310h164l-265 -301l261 -423h-180l-191 303l-70 -76v-227h-153v724h153z"/>
<glyph glyph-name="L" horiz-adv-x="568" unicode="L" d="M228 724v-594h310v-130h-464v724h154z"/>
<glyph glyph-name="M" horiz-adv-x="915" unicode="M" d="M842 724v-724h-144v568h-4l-171 -568h-139l-165 569h-4v-569h-141v724h230l153 -529h4l152 529h229z"/>
<glyph glyph-name="N" horiz-adv-x="745" unicode="N" d="M672 0h-178l-279 511v-511h-141v724h184l274 -513v513h140v-724z"/>
<glyph glyph-name="O" horiz-adv-x="760" unicode="O" d="M381 118q183 0 183 246q0 243 -176 243q-90 0 -140.5 -61t-50.5 -184q0 -244 184 -244zM375 -12q-172 0 -254.5 100t-82.5 271q0 168 91.5 273t261.5 105q167 0 249.5 -101t82.5 -263q0 -181 -88 -283t-260 -102z"/>
<glyph glyph-name="P" horiz-adv-x="621" unicode="P" d="M227 358h62q68 0 105 27.5t37 101.5q0 65 -33.5 89t-96.5 24h-74v-242zM227 234v-234h-153v724h274q128 0 184.5 -63.5t56.5 -162.5q0 -264 -283 -264h-79z"/>
<glyph glyph-name="Q" horiz-adv-x="760" unicode="Q" d="M383 115q39 0 69 10l-113 120l93 83l107 -121q26 51 26 157q0 243 -177 243q-90 0 -140.5 -61t-50.5 -184q0 -247 186 -247zM375 -12q-172 0 -254.5 100t-82.5 271q0 168 91.5 273t261.5 105q167 0 249.5 -101t82.5 -263q0 -169 -83 -270l82 -88l-96 -81l-83 90 q-74 -36 -168 -36z"/>
<glyph glyph-name="R" horiz-adv-x="642" unicode="R" d="M227 396h79q131 0 131 109q0 51 -30.5 73t-94.5 22h-85v-204zM471 313l164 -313h-166l-143 275h-99v-275h-153v724h282q126 0 183 -57.5t57 -146.5q0 -149 -125 -207z"/>
<glyph glyph-name="S" horiz-adv-x="596" unicode="S" d="M300 618q-108 0 -108 -77q0 -35 28 -58t69.5 -33.5t90.5 -27.5t90.5 -36.5t69.5 -63t28 -105.5q0 -115 -79 -172t-198 -57q-264 0 -280 230l140 21q10 -61 41 -95t103 -34q53 0 86.5 21t33.5 68q0 30 -21 50.5t-54 31.5t-73.5 20.5t-80.5 24t-73 36t-54 61.5t-21 96 q0 102 74.5 160t189.5 58q52 0 93.5 -9.5t78.5 -31.5t59.5 -65.5t26.5 -105.5l-141 -16q-4 54 -31.5 81.5t-87.5 27.5z"/>
<glyph glyph-name="T" horiz-adv-x="595" unicode="T" d="M376 0h-155v594h-213v130h579v-130h-211v-594z"/>
<glyph glyph-name="U" horiz-adv-x="708" unicode="U" d="M356 117q74 0 103 38t29 128v441h154v-463q0 -273 -292 -273q-149 0 -217 67t-68 210v459h155v-438q0 -89 29 -129t107 -40z"/>
<glyph glyph-name="V" horiz-adv-x="662" unicode="V" d="M440 0h-208l-235 724h173l165 -572h6l165 572h159z"/>
<glyph glyph-name="W" horiz-adv-x="964" unicode="W" d="M801 0h-197l-117 499h-4l-116 -499h-203l-156 724h161l102 -558h4l129 558h165l133 -561h5l94 561h155z"/>
<glyph glyph-name="X" horiz-adv-x="651" unicode="X" d="M640 724l-226 -358l238 -366h-178l-158 241l-151 -241h-166l234 365l-223 359h172l148 -245l150 245h160z"/>
<glyph glyph-name="Y" horiz-adv-x="606" unicode="Y" d="M388 273v-273h-155v271l-251 453h169l159 -310h5l153 310h156z"/>
<glyph glyph-name="Z" horiz-adv-x="592" unicode="Z" d="M549 609l-337 -479h351v-130h-536v113l343 482h-334v129h513v-115z"/>
<glyph glyph-name="bracketleft" horiz-adv-x="318" unicode="[" d="M282 -143h-227v867h227v-98h-81v-671h81v-98z"/>
<glyph glyph-name="backslash" horiz-adv-x="446" unicode="\" d="M437 -92h-138l-280 847h137z"/>
<glyph glyph-name="bracketright" horiz-adv-x="318" unicode="]" d="M263 -143h-227v98h81v671h-81v98h227v-867z"/>
<glyph glyph-name="asciicircum" horiz-adv-x="683" unicode="^" d="M618 299h-144l-133 236l-130 -236h-142l197 365h153z"/>
<glyph glyph-name="underscore" horiz-adv-x="500" unicode="_" d="M500 -181h-500v110h500v-110z"/>
<glyph glyph-name="grave" horiz-adv-x="500" unicode="`" d="M230 572l-135 171h162l74 -162z"/>
<glyph glyph-name="a" horiz-adv-x="558" unicode="a" d="M334 129v92h-24q-61 -3 -92.5 -17.5t-31.5 -51.5q0 -57 61 -57q53 0 87 34zM481 348v-218q0 -23 6 -31.5t25 -8.5q12 0 31 6l4 -87q-36 -20 -96 -20q-92 0 -107 66q-51 -67 -155 -67q-46 0 -78.5 14t-48 36.5t-22 44t-6.5 44.5q0 46 19 80t47.5 53t70.5 30.5t79.5 15 t82.5 3.5v19q0 50 -14 72.5t-60 22.5q-37 0 -53.5 -16t-25.5 -56l-128 25q12 77 64.5 116.5t155.5 39.5q107 0 158 -43.5t51 -140.5z"/>
<glyph glyph-name="b" horiz-adv-x="592" unicode="b" d="M209 371v-228q43 -34 91 -34q51 0 74 38.5t23 120.5q0 143 -92 143q-50 0 -96 -40zM186 0h-127v755h148v-281q61 58 157 58q86 0 139 -62.5t53 -197.5q0 -146 -59 -215t-158 -69q-87 0 -143 56h-3z"/>
<glyph glyph-name="c" horiz-adv-x="544" unicode="c" d="M285 -12q-126 0 -188.5 71t-62.5 193q0 135 69 207.5t197 72.5q95 0 152 -51t65 -146l-135 -20q-6 52 -24 76.5t-61 24.5q-49 0 -77 -32t-28 -116q0 -86 26.5 -124t76.5 -38q44 0 67 22.5t30 72.5l127 -24q-14 -94 -76.5 -141.5t-157.5 -47.5z"/>
<glyph glyph-name="d" horiz-adv-x="591" unicode="d" d="M384 144v239q-39 29 -84 29q-105 0 -105 -157q0 -148 100 -148q50 0 89 37zM534 755v-755h-126l-9 51l-3 1q-58 -64 -154 -64t-150.5 63.5t-54.5 198.5q0 145 64 213.5t156 68.5q85 0 132 -44v267h145z"/>
<glyph glyph-name="e" horiz-adv-x="547" unicode="e" d="M195 319h162q0 55 -19 79.5t-57 24.5q-36 0 -61 -25.5t-25 -78.5zM289 -12q-70 0 -121 22t-79.5 61t-41.5 85.5t-13 102.5q0 134 71.5 203.5t183.5 69.5q114 0 169 -64t55 -177q0 -49 -3 -68h-317q2 -64 27.5 -91t77.5 -27q38 0 57 18.5t28 55.5l127 -31 q-15 -74 -72 -117t-149 -43z"/>
<glyph glyph-name="f" horiz-adv-x="366" unicode="f" d="M383 747l-6 -107q-37 13 -70 13q-40 0 -60 -18t-20 -68v-46h138v-110h-138v-411h-151v411h-70v110h70v60q0 93 51 139t141 46q75 0 115 -19z"/>
<glyph glyph-name="g" horiz-adv-x="560" unicode="g" d="M395 -75q0 37 -64 41l-145 9q-31 -24 -31 -50q0 -53 127 -53q56 0 84.5 11.5t28.5 41.5zM369 347q0 79 -89 79q-95 0 -95 -79q0 -80 93 -80q42 0 66.5 21t24.5 59zM274 532q89 0 138 -32q36 79 96 79q20 0 42 -9v-99q-9 1 -25 1q-29 0 -61 -9q43 -49 43 -117 q0 -86 -64 -136.5t-165 -50.5q-47 0 -87 11q-19 -19 -19 -32q0 -12 9.5 -18.5t37.5 -8.5l148 -9q88 -6 131.5 -40t43.5 -110q0 -91 -74.5 -134t-197.5 -43q-136 0 -193.5 31.5t-57.5 89.5q0 36 25.5 61t68.5 33v4q-76 22 -76 88q0 36 19.5 61t61.5 55q-76 44 -76 141 q0 85 62 139t170 54z"/>
<glyph glyph-name="h" d="M530 356v-356h-151v329q0 80 -69 80q-59 0 -102 -41v-368h-151v755h150v-282q75 59 161 59q84 0 123 -42.5t39 -133.5z" unicode="h"/>
<glyph glyph-name="i" horiz-adv-x="268" unicode="i" d="M227 681q0 -44 -24 -68t-67 -24q-44 0 -67.5 24t-23.5 68q0 91 91 91q43 0 67 -23.5t24 -67.5zM211 521v-521h-151v521h151z"/>
<glyph glyph-name="j" horiz-adv-x="266" unicode="j" d="M227 684q0 -45 -23.5 -69t-67.5 -24q-43 0 -67 24t-24 69q0 44 24 67t67 23q91 0 91 -90zM25 -223q-82 0 -123 28l11 113q43 -20 82 -20q65 0 65 78v545h151v-562q0 -182 -186 -182z"/>
<glyph glyph-name="k" horiz-adv-x="564" unicode="k" d="M210 755v-416l172 182h167l-173 -187l186 -334h-167l-135 238l-50 -49v-189h-151v755h151z"/>
<glyph glyph-name="l" horiz-adv-x="268" unicode="l" d="M211 755v-755h-151v755h151z"/>
<glyph glyph-name="m" horiz-adv-x="854" unicode="m" d="M208 373v-373h-151v521h128l7 -49q70 60 158 60q100 0 133 -65q62 65 162 65q156 0 156 -173v-359h-151v335q0 38 -13.5 56.5t-45.5 18.5q-21 0 -46.5 -10.5t-39.5 -25.5q0 -2 0.5 -6t0.5 -7v-361h-151v335q0 38 -13.5 56.5t-44.5 18.5q-23 0 -48.5 -11t-40.5 -26z"/>
<glyph glyph-name="n" d="M530 356v-356h-151v330q0 80 -69 80q-59 0 -102 -41v-369h-151v521h134l8 -52q70 63 166 63q86 0 125.5 -42.5t39.5 -133.5z" unicode="n"/>
<glyph glyph-name="o" horiz-adv-x="587" unicode="o" d="M295 100q51 0 76 37.5t25 126.5q0 83 -23.5 118.5t-74.5 35.5q-53 0 -79.5 -37t-26.5 -119q0 -87 23.5 -124.5t79.5 -37.5zM288 -12q-254 0 -254 270q0 129 67.5 201.5t200.5 72.5q129 0 190 -70.5t61 -192.5q0 -134 -64.5 -207.5t-200.5 -73.5z"/>
<glyph glyph-name="p" horiz-adv-x="592" unicode="p" d="M208 372v-228q13 -13 39 -24t52 -11q98 0 98 159q0 77 -22.5 110.5t-69.5 33.5q-49 0 -97 -40zM59 -212v733h128l9 -53q64 64 163 64q90 0 143 -62t53 -198q0 -146 -59 -215t-153 -69q-85 0 -138 50v-250h-146z"/>
<glyph glyph-name="q" horiz-adv-x="590" unicode="q" d="M384 144v237q-36 31 -86 31q-103 0 -103 -154q0 -150 100 -150q48 0 89 36zM534 521v-733h-144v257q-60 -57 -150 -57q-203 0 -203 264q0 144 64 212t157 68q88 0 138 -59l14 48h124z"/>
<glyph glyph-name="r" horiz-adv-x="393" unicode="r" d="M387 531v-147q-9 1 -28 1q-90 0 -151 -48v-337h-151v521h129l11 -82q64 93 164 93q4 0 12.5 -0.5t13.5 -0.5z"/>
<glyph glyph-name="s" horiz-adv-x="501" unicode="s" d="M257 532q169 0 208 -138l-124 -39q-11 36 -30.5 53.5t-59.5 17.5q-66 0 -66 -46q0 -14 7 -23t24.5 -15.5t31 -10t43.5 -8.5q43 -8 68.5 -15t55.5 -23.5t44.5 -46.5t14.5 -74q0 -86 -64 -131t-165 -45q-191 0 -222 143l123 40q22 -79 104 -79q75 0 75 49q0 27 -21 36.5 t-76 19.5q-34 6 -55.5 11.5t-49.5 17.5t-44 28t-27.5 44t-11.5 64q0 82 62 126t155 44z"/>
<glyph glyph-name="t" horiz-adv-x="412" unicode="t" d="M383 132l21 -107q-59 -37 -153 -37q-83 0 -124.5 40.5t-41.5 128.5v254h-78v110h78v154l151 20v-174h138v-110h-138v-233q0 -37 13 -53.5t48 -16.5q46 0 86 24z"/>
<glyph glyph-name="u" horiz-adv-x="578" unicode="u" d="M55 162v359h151v-329q0 -43 15 -62t51 -19q56 0 99 41v369h151v-521h-130l-11 56q-58 -67 -166 -67q-160 0 -160 173z"/>
<glyph glyph-name="v" horiz-adv-x="536" unicode="v" d="M356 0h-176l-184 521h163l111 -376h4l111 376h155z"/>
<glyph glyph-name="w" horiz-adv-x="813" unicode="w" d="M329 0h-179l-154 521h151l95 -366h2l92 366h148l92 -364h3l91 364h147l-155 -521h-170l-84 340h-2z"/>
<glyph glyph-name="x" horiz-adv-x="531" unicode="x" d="M520 521l-170 -253l175 -268h-161l-106 161l-103 -161h-145l170 261l-173 260h163l101 -159l104 159h145z"/>
<glyph glyph-name="y" horiz-adv-x="526" unicode="y" d="M194 -11l-198 532h163l109 -363h3l105 363h155q-65 -184 -207 -572q-35 -95 -76.5 -133.5t-119.5 -38.5q-68 0 -114 22l11 109q50 -16 79 -16q52 0 74 56z"/>
<glyph glyph-name="z" horiz-adv-x="466" unicode="z" d="M431 414l-232 -293h246v-121h-418v107l240 301h-238v113h402v-107z"/>
<glyph glyph-name="braceleft" horiz-adv-x="337" unicode="{" d="M304 -44v-101h-76q-155 0 -155 130q0 29 7 91t7 100q0 72 -64 72h-21v92h21q64 0 64 72q0 38 -7 103t-7 92q0 67 38.5 98.5t116.5 31.5h76v-101h-22q-28 0 -37.5 -11.5t-9.5 -36.5q0 -30 7.5 -93t7.5 -93q0 -47 -20 -69.5t-64 -39.5q44 -16 64 -38.5t20 -67.5 q0 -31 -7.5 -91.5t-7.5 -89.5q0 -26 10.5 -38t40.5 -12h18z"/>
<glyph glyph-name="bar" horiz-adv-x="280" unicode="|" d="M209 -143h-137v898h137v-898z"/>
<glyph glyph-name="braceright" horiz-adv-x="337" unicode="}" d="M33 636v101h76q155 0 155 -130q0 -28 -7 -90.5t-7 -100.5q0 -72 64 -72h21v-92h-21q-64 0 -64 -72q0 -38 7 -103t7 -92q0 -67 -38.5 -98.5t-116.5 -31.5h-76v101h22q28 0 37.5 11.5t9.5 36.5q0 30 -7.5 93t-7.5 93q0 47 20 69.5t64 39.5q-44 16 -64 38.5t-20 67.5 q0 31 7.5 91.5t7.5 89.5q0 26 -10.5 38t-40.5 12h-18z"/>
<glyph glyph-name="asciitilde" horiz-adv-x="600" unicode="~" d="M176 450q35 0 129 -22t114 -22q17 0 23.5 9.5t6.5 34.5l83 -4q2 -20 2 -30q0 -52 -25.5 -84.5t-74.5 -32.5q-37 0 -133 22t-114 22q-29 0 -29 -32q0 -9 1 -15l-89 3q-2 20 -2 29q0 56 28 89t80 33z"/>
<glyph glyph-name="uni00A0" horiz-adv-x="174" unicode=" "/>
<glyph glyph-name="exclamdown" horiz-adv-x="290" unicode="¡" d="M59 452q0 80 89 80q90 0 90 -80q0 -81 -90 -81q-89 0 -89 81zM85 323h126l19 -527h-164z"/>
<glyph glyph-name="cent" horiz-adv-x="537" unicode="¢" d="M228 711h127v-104q67 -12 107.5 -58.5t46.5 -120.5l-136 -20q-5 48 -22 69t-54 21q-46 0 -72 -28.5t-26 -103.5q0 -73 22.5 -108t75.5 -35q41 0 60.5 20t27.5 67l126 -23q-11 -73 -54 -117.5t-110 -57.5v-112h-127v112q-87 17 -131.5 80.5t-44.5 158.5q0 105 48 170 t136 84v106z"/>
<glyph glyph-name="sterling" horiz-adv-x="593" unicode="£" d="M16 120h59q37 32 52.5 59t15.5 64q0 30 -17 69h-96v110h65q-40 70 -40 121q0 88 67 141t182 53q103 0 161 -45t73 -146l-134 -23q-7 48 -28.5 75t-71.5 27q-92 0 -92 -84q0 -43 40 -119h193v-110h-165q11 -30 11 -60q0 -72 -61 -132h105q60 0 82 20t33 75l127 -22 q-8 -101 -62 -147t-166 -46h-333v120z"/>
<glyph glyph-name="currency" horiz-adv-x="570" unicode="¤" d="M274 163q48 0 74 33t26 84q0 114 -103 114q-49 0 -74.5 -31t-25.5 -83t26 -84.5t77 -32.5zM558 79l-83 -83l-87 86q-51 -30 -119 -30q-69 0 -121 32q-6 -7 -87 -88l-80 82l91 91q-24 49 -24 111q0 54 26 104l-90 89l83 84l85 -84q52 33 124 33q74 0 122 -30l82 80l78 -82 l-84 -85q23 -49 23 -105q0 -63 -29 -116z"/>
<glyph glyph-name="yen" horiz-adv-x="574" unicode="¥" d="M563 724l-156 -307h88v-94h-129v-69h129v-94h-129v-160h-151v160h-127v94h127v69h-127v94h83l-159 307h162l119 -253h4l115 253h151z"/>
<glyph glyph-name="brokenbar" horiz-adv-x="280" unicode="¦" d="M209 417h-137v338h137v-338zM209 -143h-137v388h137v-388z"/>
<glyph glyph-name="section" horiz-adv-x="569" unicode="§" d="M176 270q0 -19 9.5 -33.5t29 -24.5t38.5 -16t50 -15.5t50 -16.5q45 27 45 63q0 23 -18 39t-40 23.5t-62 19.5t-63 22q-39 -25 -39 -61zM41 236q0 86 90 145q-58 54 -58 134q0 89 67.5 141.5t167.5 52.5q92 0 150.5 -45t67.5 -142l-130 -15q-4 48 -25.5 71.5t-67.5 23.5 q-40 0 -62.5 -17.5t-22.5 -49.5q0 -31 23.5 -52.5t58.5 -31.5t75.5 -24.5t75.5 -30.5t58.5 -50t23.5 -83q0 -87 -90 -151q57 -51 57 -131q0 -92 -63 -143.5t-171 -51.5q-93 0 -152 44.5t-68 140.5l131 15q4 -48 25.5 -71.5t67.5 -23.5q40 0 63 18.5t23 51.5q0 36 -32.5 57.5 t-79 33.5t-92.5 28t-78.5 55t-32.5 101z"/>
<glyph glyph-name="dieresis" horiz-adv-x="500" unicode="¨" d="M456 679q0 -38 -24 -60.5t-64 -22.5q-41 0 -65.5 22.5t-24.5 60.5t24.5 61t65.5 23q40 0 64 -23t24 -61zM221 679q0 -38 -24.5 -60.5t-63.5 -22.5q-41 0 -66 22.5t-25 60.5t25 61t66 23q39 0 63.5 -23t24.5 -61z"/>
<glyph glyph-name="copyright" horiz-adv-x="802" unicode="©" d="M494 281l71 -13q-9 -70 -56.5 -99.5t-102.5 -29.5q-92 0 -135 52.5t-43 142.5q0 87 48 140.5t134 53.5q62 0 104.5 -34t46.5 -100l-73 -8q-5 40 -24.5 58t-57.5 18q-96 0 -96 -130q0 -128 96 -128q73 0 88 77zM403 67q124 0 195 71.5t71 195.5q0 126 -73 195.5t-193 69.5 q-118 0 -192.5 -72.5t-74.5 -199.5q0 -123 70.5 -191.5t196.5 -68.5zM753 340q0 -158 -98 -255t-254 -97q-168 0 -259.5 94t-91.5 244q0 161 100.5 256t252.5 95q162 0 256 -91.5t94 -245.5z"/>
<glyph glyph-name="ordfeminine" horiz-adv-x="397" unicode="ª" d="M227 369v51q-83 0 -83 -39q0 -30 36 -30q27 0 47 18zM341 510v-134q0 -26 18 -26q9 0 20 4l3 -66q-28 -13 -64 -13q-68 0 -80 47q-39 -48 -105 -48q-59 0 -83 28.5t-24 63.5q0 117 200 117v13q0 27 -8 40t-36 13q-40 0 -47 -46l-100 18q19 110 156 110q76 0 113 -29 t37 -92z"/>
<glyph glyph-name="guillemotleft" horiz-adv-x="464" unicode="«" d="M430 103h-121l-86 154l89 151h122l-88 -147zM244 103h-121l-86 154l89 151h122l-88 -147z"/>
<glyph glyph-name="logicalnot" horiz-adv-x="570" unicode="¬" d="M472 170h-111v95h-276v119h387v-214z"/>
<glyph glyph-name="uni00AD" horiz-adv-x="311" unicode="­" d="M291 227h-271v129h271v-129z"/>
<glyph glyph-name="registered" horiz-adv-x="465" unicode="®" d="M215 487h13q35 0 35 26q0 24 -30 24h-18v-50zM276 467l51 -85h-53l-42 71h-17v-71h-47v190h71q72 0 72 -55q0 -37 -35 -50zM375 471q0 68 -39.5 105t-102.5 37q-61 0 -101.5 -39.5t-40.5 -105.5q0 -65 38 -102t104 -37t104 38t38 104zM425 474q0 -86 -53.5 -139.5 t-140.5 -53.5q-90 0 -140.5 52t-50.5 133q0 88 55.5 141t137.5 53q88 0 140 -51t52 -135z"/>
<glyph glyph-name="overscore" horiz-adv-x="500" unicode="¯" d="M405 601h-311v102h311v-102z"/>
<glyph glyph-name="degree" horiz-adv-x="358" unicode="°" d="M298 632q0 -54 -32.5 -86t-84.5 -32q-54 0 -86.5 31.5t-32.5 83.5q0 54 34.5 87t84.5 33t83.5 -32t33.5 -85zM181 580q21 0 34.5 14.5t13.5 37.5t-13.5 37t-34.5 14t-35.5 -15t-14.5 -39q0 -21 13.5 -35t36.5 -14z"/>
<glyph glyph-name="plusminus" horiz-adv-x="570" unicode="±" d="M344 144h-120v120h-133v119h133v139h120v-139h134v-119h-134v-120zM478 0h-387v119h387v-119z"/>
<glyph glyph-name="twosuperior" horiz-adv-x="405" unicode="²" d="M203 809q80 0 119 -32t39 -88q0 -51 -30 -91.5t-106 -103.5l-32 -33v-4h175v-108h-327v108l97 97q53 53 71.5 78.5t18.5 47.5q0 34 -34 34q-42 0 -50 -57l-114 15q8 69 55.5 103t117.5 34z"/>
<glyph glyph-name="threesuperior" horiz-adv-x="412" unicode="³" d="M22 466l114 21q5 -50 52 -50q48 0 48 48q0 27 -12.5 38.5t-44.5 11.5h-50v86h31q70 0 70 59q0 36 -38 36t-49 -47l-110 20q21 120 172 120q75 0 115 -27.5t40 -81.5q0 -77 -87 -108v-3q98 -20 98 -107q0 -66 -50 -103t-131 -37q-66 0 -113 28.5t-55 95.5z"/>
<glyph glyph-name="acute" horiz-adv-x="500" unicode="´" d="M407 743l-135 -171l-101 9l75 162h161z"/>
<glyph glyph-name="mu" horiz-adv-x="629" unicode="µ" d="M81 -176v697h151v-330q0 -44 12 -63t43 -19q50 0 102 43v369h151v-521h-125l-5 54h-5q-62 -59 -134 -59q-23 0 -43 4l-1 -1l10 -174h-156z"/>
<glyph glyph-name="paragraph" horiz-adv-x="601" unicode="¶" d="M529 724l1 -857h-105v763h-66v-763h-105v377q-109 7 -162.5 66.5t-53.5 164.5q0 130 77 189.5t205 59.5h209z"/>
<glyph glyph-name="middot" horiz-adv-x="238" unicode="·" d="M205 309q0 -79 -85 -79q-86 0 -86 79q0 80 86 80q85 0 85 -80z"/>
<glyph glyph-name="cedilla" horiz-adv-x="500" unicode="¸" d="M136 -232l15 70q28 -7 48 -7q50 0 50 37q0 22 -15 29t-49 8l16 125l72 -8l-9 -67q85 -15 85 -92q0 -53 -36 -81t-95 -28q-45 0 -82 14z"/>
<glyph glyph-name="onesuperior" horiz-adv-x="328" unicode="¹" d="M270 347h-133v314q-14 -7 -48.5 -12.5t-52.5 -5.5l-5 104q97 7 142 52h97v-452z"/>
<glyph glyph-name="ordmasculine" horiz-adv-x="416" unicode="º" d="M208 356q32 0 46 22t14 77q0 52 -13.5 72.5t-44.5 20.5q-32 0 -47 -22t-15 -72q0 -53 13.5 -75.5t46.5 -22.5zM203 274q-178 0 -178 177q0 86 47 133t141 47q92 0 135 -46t43 -126q0 -88 -46 -136.5t-142 -48.5z"/>
<glyph glyph-name="guillemotright" horiz-adv-x="464" unicode="»" d="M217 408h122l89 -153l-87 -152h-120l84 153zM31 408h122l89 -153l-87 -152h-120l84 153z"/>
<glyph glyph-name="onequarter" horiz-adv-x="1012" unicode="¼" d="M686 192h98v150zM912 0h-128v92h-208v89l176 271h159v-260h52v-100h-51v-92zM286 279h-133v314q-14 -7 -48.5 -12.5t-52.5 -5.5l-5 104q97 7 142 52h97v-452zM372 -12h-139l354 736h138z"/>
<glyph glyph-name="onehalf" horiz-adv-x="1012" unicode="½" d="M787 460q80 0 119 -32t39 -88q0 -51 -30 -91.5t-106 -103.5l-32 -33v-4h175v-108h-327v108l97 97q53 53 71.5 78.5t18.5 47.5q0 34 -34 34q-42 0 -50 -57l-114 15q8 69 55.5 103t117.5 34zM289 279h-133v314q-14 -7 -48.5 -12.5t-52.5 -5.5l-5 104q97 7 142 52h97v-452z M367 -12h-139l354 736h138z"/>
<glyph glyph-name="threequarters" horiz-adv-x="1012" unicode="¾" d="M40 398l114 21q5 -50 52 -50q48 0 48 48q0 27 -12.5 38.5t-44.5 11.5h-50v86h31q70 0 70 59q0 36 -38 36t-49 -47l-110 20q21 120 172 120q75 0 115 -27.5t40 -81.5q0 -77 -87 -108v-3q98 -20 98 -107q0 -66 -50 -103t-131 -37q-66 0 -113 28.5t-55 95.5zM698 192h98v150 zM924 0h-128v92h-208v89l176 271h159v-260h52v-100h-51v-92zM404 -12h-139l354 736h138z"/>
<glyph glyph-name="questiondown" horiz-adv-x="536" unicode="¿" d="M224 452q0 80 89 80t89 -80q0 -81 -89 -81t-89 81zM236 323h150v-183q-199 -16 -199 -142q0 -87 87 -87q47 0 72 25t34 79l147 -23q-12 -98 -79 -152t-182 -54q-104 0 -171 50.5t-67 163.5q0 183 208 232v91z"/>
<glyph glyph-name="Agrave" horiz-adv-x="709" unicode="À" d="M326 768l-146 148h162l91 -140zM438 299l-90 280h-4l-89 -280h183zM251 724h192l256 -724h-169l-60 176h-241l-56 -176h-159z"/>
<glyph glyph-name="Aacute" horiz-adv-x="709" unicode="Á" d="M511 916l-146 -148l-107 8l91 140h162zM438 299l-90 280h-4l-89 -280h183zM251 724h192l256 -724h-169l-60 176h-241l-56 -176h-159z"/>
<glyph glyph-name="Acircumflex" horiz-adv-x="709" unicode="Â" d="M420 769l-72 72l-75 -73l-102 7l107 142h140l102 -142zM438 299l-90 280h-4l-89 -280h183zM251 724h192l256 -724h-169l-60 176h-241l-56 -176h-159z"/>
<glyph glyph-name="Atilde" horiz-adv-x="709" unicode="Ã" d="M271 930q35 0 81.5 -21.5t66.5 -21.5q17 0 23.5 9.5t6.5 34.5l76 -4q2 -20 2 -28q0 -53 -23.5 -83t-69.5 -30q-38 0 -86 22t-66 22q-29 0 -29 -32q0 -9 1 -15l-82 3q-2 18 -2 27q0 54 27.5 85.5t73.5 31.5zM438 299l-90 280h-4l-89 -280h183zM251 724h192l256 -724h-169 l-60 176h-241l-56 -176h-159z"/>
<glyph glyph-name="Adieresis" horiz-adv-x="709" unicode="Ä" d="M552 858q0 -38 -24 -60.5t-64 -22.5q-41 0 -65.5 22.5t-24.5 60.5t24.5 61t65.5 23q40 0 64 -23t24 -61zM317 858q0 -38 -24.5 -60.5t-63.5 -22.5q-41 0 -66 22.5t-25 60.5t25 61t66 23q39 0 63.5 -23t24.5 -61zM438 299l-90 280h-4l-89 -280h183zM251 724h192l256 -724 h-169l-60 176h-241l-56 -176h-159z"/>
<glyph glyph-name="Aring" horiz-adv-x="709" unicode="Å" d="M346 747q51 0 51 53q0 50 -51 50q-24 0 -39 -13t-15 -38q0 -52 54 -52zM438 299l-90 280h-4l-89 -280h183zM472 798q0 -49 -27 -79l254 -719h-169l-60 176h-241l-56 -176h-159l234 717q-27 30 -27 76q0 58 35.5 89.5t89.5 31.5t90 -30.5t36 -85.5z"/>
<glyph glyph-name="AE" horiz-adv-x="1003" unicode="Æ" d="M490 408v186h-43l-90 -186h133zM644 288v-158h324v-130h-478v286h-178l-136 -286h-163l353 724h583v-130h-305v-181h287v-125h-287z"/>
<glyph glyph-name="Ccedilla" horiz-adv-x="695" unicode="Ç" d="M267 -232l15 70q28 -7 48 -7q50 0 50 37q0 22 -15 29t-49 8l11 85q-289 22 -289 364q0 175 91 279t258 104q128 0 203.5 -64t81.5 -196l-141 -12q-7 77 -41.5 111t-104.5 34q-188 0 -188 -248q0 -131 44 -189t133 -58q72 0 108 33.5t49 96.5l139 -24 q-15 -112 -91.5 -168.5t-179.5 -63.5l-4 -34q85 -15 85 -92q0 -53 -36 -81t-95 -28q-45 0 -82 14z"/>
<glyph glyph-name="Egrave" d="M287 768l-146 148h162l91 -140zM228 299v-169h323v-130h-477v724h459v-129h-305v-170h287v-126h-287z" unicode="È"/>
<glyph glyph-name="Eacute" d="M472 916l-146 -148l-107 8l91 140h162zM228 299v-169h323v-130h-477v724h459v-129h-305v-170h287v-126h-287z" unicode="É"/>
<glyph glyph-name="Ecircumflex" d="M381 769l-72 72l-75 -73l-102 7l107 142h140l102 -142zM228 299v-169h323v-130h-477v724h459v-129h-305v-170h287v-126h-287z" unicode="Ê"/>
<glyph glyph-name="Edieresis" d="M513 858q0 -38 -24 -60.5t-64 -22.5q-41 0 -65.5 22.5t-24.5 60.5t24.5 61t65.5 23q40 0 64 -23t24 -61zM278 858q0 -38 -24.5 -60.5t-63.5 -22.5q-41 0 -66 22.5t-25 60.5t25 61t66 23q39 0 63.5 -23t24.5 -61zM228 299v-169h323v-130h-477v724h459v-129h-305v-170h287 v-126h-287z" unicode="Ë"/>
<glyph glyph-name="Igrave" horiz-adv-x="302" unicode="Ì" d="M131 768l-146 148h162l91 -140zM228 724v-724h-154v724h154z"/>
<glyph glyph-name="Iacute" horiz-adv-x="302" unicode="Í" d="M316 916l-146 -148l-107 8l91 140h162zM228 724v-724h-154v724h154z"/>
<glyph glyph-name="Icircumflex" horiz-adv-x="302" unicode="Î" d="M225 769l-72 72l-75 -73l-102 7l107 142h140l102 -142zM228 724v-724h-154v724h154z"/>
<glyph glyph-name="Idieresis" horiz-adv-x="302" unicode="Ï" d="M357 858q0 -38 -24 -60.5t-64 -22.5q-41 0 -65.5 22.5t-24.5 60.5t24.5 61t65.5 23q40 0 64 -23t24 -61zM122 858q0 -38 -24.5 -60.5t-63.5 -22.5q-41 0 -66 22.5t-25 60.5t25 61t66 23q39 0 63.5 -23t24.5 -61zM228 724v-724h-154v724h154z"/>
<glyph glyph-name="Eth" horiz-adv-x="724" unicode="Ð" d="M228 124h76q121 0 173 61.5t52 179.5q0 131 -51 183t-163 52h-87v-166h171v-129h-171v-181zM311 0h-237v305h-67v129h67v290h254q183 0 271 -91.5t88 -259.5q0 -173 -94 -273t-282 -100z"/>
<glyph glyph-name="Ntilde" horiz-adv-x="745" unicode="Ñ" d="M297 930q35 0 81.5 -21.5t66.5 -21.5q17 0 23.5 9.5t6.5 34.5l76 -4q2 -20 2 -28q0 -53 -23.5 -83t-69.5 -30q-38 0 -86 22t-66 22q-29 0 -29 -32q0 -9 1 -15l-82 3q-2 18 -2 27q0 54 27.5 85.5t73.5 31.5zM672 0h-178l-279 511v-511h-141v724h184l274 -513v513h140v-724 z"/>
<glyph glyph-name="Ograve" horiz-adv-x="760" unicode="Ò" d="M370 768l-146 148h162l91 -140zM381 118q183 0 183 246q0 243 -176 243q-90 0 -140.5 -61t-50.5 -184q0 -244 184 -244zM375 -12q-172 0 -254.5 100t-82.5 271q0 168 91.5 273t261.5 105q167 0 249.5 -101t82.5 -263q0 -181 -88 -283t-260 -102z"/>
<glyph glyph-name="Oacute" horiz-adv-x="760" unicode="Ó" d="M555 916l-146 -148l-107 8l91 140h162zM381 118q183 0 183 246q0 243 -176 243q-90 0 -140.5 -61t-50.5 -184q0 -244 184 -244zM375 -12q-172 0 -254.5 100t-82.5 271q0 168 91.5 273t261.5 105q167 0 249.5 -101t82.5 -263q0 -181 -88 -283t-260 -102z"/>
<glyph glyph-name="Ocircumflex" horiz-adv-x="760" unicode="Ô" d="M464 769l-72 72l-75 -73l-102 7l107 142h140l102 -142zM381 118q183 0 183 246q0 243 -176 243q-90 0 -140.5 -61t-50.5 -184q0 -244 184 -244zM375 -12q-172 0 -254.5 100t-82.5 271q0 168 91.5 273t261.5 105q167 0 249.5 -101t82.5 -263q0 -181 -88 -283t-260 -102z "/>
<glyph glyph-name="Otilde" horiz-adv-x="760" unicode="Õ" d="M315 930q35 0 81.5 -21.5t66.5 -21.5q17 0 23.5 9.5t6.5 34.5l76 -4q2 -20 2 -28q0 -53 -23.5 -83t-69.5 -30q-38 0 -86 22t-66 22q-29 0 -29 -32q0 -9 1 -15l-82 3q-2 18 -2 27q0 54 27.5 85.5t73.5 31.5zM381 118q183 0 183 246q0 243 -176 243q-90 0 -140.5 -61 t-50.5 -184q0 -244 184 -244zM375 -12q-172 0 -254.5 100t-82.5 271q0 168 91.5 273t261.5 105q167 0 249.5 -101t82.5 -263q0 -181 -88 -283t-260 -102z"/>
<glyph glyph-name="Odieresis" horiz-adv-x="760" unicode="Ö" d="M596 858q0 -38 -24 -60.5t-64 -22.5q-41 0 -65.5 22.5t-24.5 60.5t24.5 61t65.5 23q40 0 64 -23t24 -61zM361 858q0 -38 -24.5 -60.5t-63.5 -22.5q-41 0 -66 22.5t-25 60.5t25 61t66 23q39 0 63.5 -23t24.5 -61zM381 118q183 0 183 246q0 243 -176 243q-90 0 -140.5 -61 t-50.5 -184q0 -244 184 -244zM375 -12q-172 0 -254.5 100t-82.5 271q0 168 91.5 273t261.5 105q167 0 249.5 -101t82.5 -263q0 -181 -88 -283t-260 -102z"/>
<glyph glyph-name="multiply" horiz-adv-x="570" unicode="×" d="M384 136l-99 99l-99 -99l-84 87l99 98l-99 99l84 87l99 -99l99 99l84 -87l-99 -99l99 -98z"/>
<glyph glyph-name="Oslash" horiz-adv-x="760" unicode="Ø" d="M381 118q183 0 183 246q0 111 -39 173l-174 -418q11 -1 30 -1zM197 362q0 -116 40 -175l174 418q-14 2 -23 2q-90 0 -140.5 -61t-50.5 -184zM375 -12q-40 0 -76 6l-27 -66h-143l46 112q-137 91 -137 319q0 168 91.5 273t261.5 105q39 0 72 -6l27 63h142l-46 -110 q137 -92 137 -311q0 -181 -88 -283t-260 -102z"/>
<glyph glyph-name="Ugrave" horiz-adv-x="708" unicode="Ù" d="M333 768l-146 148h162l91 -140zM356 117q74 0 103 38t29 128v441h154v-463q0 -273 -292 -273q-149 0 -217 67t-68 210v459h155v-438q0 -89 29 -129t107 -40z"/>
<glyph glyph-name="Uacute" horiz-adv-x="708" unicode="Ú" d="M526 916l-146 -148l-107 8l91 140h162zM356 117q74 0 103 38t29 128v441h154v-463q0 -273 -292 -273q-149 0 -217 67t-68 210v459h155v-438q0 -89 29 -129t107 -40z"/>
<glyph glyph-name="Ucircumflex" horiz-adv-x="708" unicode="Û" d="M427 769l-72 72l-75 -73l-102 7l107 142h140l102 -142zM356 117q74 0 103 38t29 128v441h154v-463q0 -273 -292 -273q-149 0 -217 67t-68 210v459h155v-438q0 -89 29 -129t107 -40z"/>
<glyph glyph-name="Udieresis" horiz-adv-x="708" unicode="Ü" d="M559 858q0 -38 -24 -60.5t-64 -22.5q-41 0 -65.5 22.5t-24.5 60.5t24.5 61t65.5 23q40 0 64 -23t24 -61zM324 858q0 -38 -24.5 -60.5t-63.5 -22.5q-41 0 -66 22.5t-25 60.5t25 61t66 23q39 0 63.5 -23t24.5 -61zM356 117q74 0 103 38t29 128v441h154v-463 q0 -273 -292 -273q-149 0 -217 67t-68 210v459h155v-438q0 -89 29 -129t107 -40z"/>
<glyph glyph-name="Yacute" horiz-adv-x="606" unicode="Ý" d="M473 916l-146 -148l-107 8l91 140h162zM388 273v-273h-155v271l-251 453h169l159 -310h5l153 310h156z"/>
<glyph glyph-name="Thorn" horiz-adv-x="621" unicode="Þ" d="M227 252h62q69 0 105.5 25.5t36.5 98.5q0 60 -34 84t-96 24h-74v-232zM227 128v-128h-153v724h153v-116h121q67 0 115.5 -18.5t75 -51t38.5 -70t12 -81.5q0 -259 -283 -259h-79z"/>
<glyph glyph-name="germandbls" horiz-adv-x="656" unicode="ß" d="M208 0h-151v513q0 255 265 255q117 0 181.5 -50t64.5 -142q0 -68 -33 -109.5t-77 -58.5v-3q75 -17 118.5 -60.5t43.5 -139.5q0 -92 -54.5 -154.5t-160.5 -62.5q-117 0 -173 72l57 92q44 -53 97 -53q82 0 82 116q0 119 -136 119h-35v108h17q103 0 103 111q0 107 -100 107 q-54 0 -81.5 -29.5t-27.5 -107.5v-523z"/>
<glyph glyph-name="agrave" horiz-adv-x="558" unicode="à" d="M250 572l-135 171h162l74 -162zM334 129v92h-24q-61 -3 -92.5 -17.5t-31.5 -51.5q0 -57 61 -57q53 0 87 34zM481 348v-218q0 -23 6 -31.5t25 -8.5q12 0 31 6l4 -87q-36 -20 -96 -20q-92 0 -107 66q-51 -67 -155 -67q-46 0 -78.5 14t-48 36.5t-22 44t-6.5 44.5q0 46 19 80 t47.5 53t70.5 30.5t79.5 15t82.5 3.5v19q0 50 -14 72.5t-60 22.5q-37 0 -53.5 -16t-25.5 -56l-128 25q12 77 64.5 116.5t155.5 39.5q107 0 158 -43.5t51 -140.5z"/>
<glyph glyph-name="aacute" horiz-adv-x="558" unicode="á" d="M427 743l-135 -171l-101 9l75 162h161zM334 129v92h-24q-61 -3 -92.5 -17.5t-31.5 -51.5q0 -57 61 -57q53 0 87 34zM481 348v-218q0 -23 6 -31.5t25 -8.5q12 0 31 6l4 -87q-36 -20 -96 -20q-92 0 -107 66q-51 -67 -155 -67q-46 0 -78.5 14t-48 36.5t-22 44t-6.5 44.5 q0 46 19 80t47.5 53t70.5 30.5t79.5 15t82.5 3.5v19q0 50 -14 72.5t-60 22.5q-37 0 -53.5 -16t-25.5 -56l-128 25q12 77 64.5 116.5t155.5 39.5q107 0 158 -43.5t51 -140.5z"/>
<glyph glyph-name="acircumflex" horiz-adv-x="558" unicode="â" d="M444 581l-100 -5l-73 94l-76 -95l-101 6l105 164h144zM334 129v92h-24q-61 -3 -92.5 -17.5t-31.5 -51.5q0 -57 61 -57q53 0 87 34zM481 348v-218q0 -23 6 -31.5t25 -8.5q12 0 31 6l4 -87q-36 -20 -96 -20q-92 0 -107 66q-51 -67 -155 -67q-46 0 -78.5 14t-48 36.5t-22 44 t-6.5 44.5q0 46 19 80t47.5 53t70.5 30.5t79.5 15t82.5 3.5v19q0 50 -14 72.5t-60 22.5q-37 0 -53.5 -16t-25.5 -56l-128 25q12 77 64.5 116.5t155.5 39.5q107 0 158 -43.5t51 -140.5z"/>
<glyph glyph-name="atilde" horiz-adv-x="558" unicode="ã" d="M193 732q35 0 81.5 -22t66.5 -22q17 0 23.5 9.5t6.5 34.5l76 -4q2 -20 2 -28q0 -53 -23.5 -83t-69.5 -30q-38 0 -86 22t-66 22q-29 0 -29 -32q0 -9 1 -15l-82 3q-2 18 -2 27q0 54 27.5 86t73.5 32zM334 129v92h-24q-61 -3 -92.5 -17.5t-31.5 -51.5q0 -57 61 -57 q53 0 87 34zM481 348v-218q0 -23 6 -31.5t25 -8.5q12 0 31 6l4 -87q-36 -20 -96 -20q-92 0 -107 66q-51 -67 -155 -67q-46 0 -78.5 14t-48 36.5t-22 44t-6.5 44.5q0 46 19 80t47.5 53t70.5 30.5t79.5 15t82.5 3.5v19q0 50 -14 72.5t-60 22.5q-37 0 -53.5 -16t-25.5 -56 l-128 25q12 77 64.5 116.5t155.5 39.5q107 0 158 -43.5t51 -140.5z"/>
<glyph glyph-name="adieresis" horiz-adv-x="558" unicode="ä" d="M476 679q0 -38 -24 -60.5t-64 -22.5q-41 0 -65.5 22.5t-24.5 60.5t24.5 61t65.5 23q40 0 64 -23t24 -61zM241 679q0 -38 -24.5 -60.5t-63.5 -22.5q-41 0 -66 22.5t-25 60.5t25 61t66 23q39 0 63.5 -23t24.5 -61zM334 129v92h-24q-61 -3 -92.5 -17.5t-31.5 -51.5 q0 -57 61 -57q53 0 87 34zM481 348v-218q0 -23 6 -31.5t25 -8.5q12 0 31 6l4 -87q-36 -20 -96 -20q-92 0 -107 66q-51 -67 -155 -67q-46 0 -78.5 14t-48 36.5t-22 44t-6.5 44.5q0 46 19 80t47.5 53t70.5 30.5t79.5 15t82.5 3.5v19q0 50 -14 72.5t-60 22.5q-37 0 -53.5 -16 t-25.5 -56l-128 25q12 77 64.5 116.5t155.5 39.5q107 0 158 -43.5t51 -140.5z"/>
<glyph glyph-name="aring" horiz-adv-x="558" unicode="å" d="M270 630q44 0 44 45q0 42 -44 42q-20 0 -32.5 -11.5t-12.5 -31.5q0 -44 45 -44zM383 675q0 -50 -30.5 -77.5t-82.5 -27.5q-51 0 -81.5 26.5t-30.5 74.5q0 52 32 80.5t80 28.5q49 0 81 -27.5t32 -77.5zM334 129v92h-24q-61 -3 -92.5 -17.5t-31.5 -51.5q0 -57 61 -57 q53 0 87 34zM481 348v-218q0 -23 6 -31.5t25 -8.5q12 0 31 6l4 -87q-36 -20 -96 -20q-92 0 -107 66q-51 -67 -155 -67q-46 0 -78.5 14t-48 36.5t-22 44t-6.5 44.5q0 46 19 80t47.5 53t70.5 30.5t79.5 15t82.5 3.5v19q0 50 -14 72.5t-60 22.5q-37 0 -53.5 -16t-25.5 -56 l-128 25q12 77 64.5 116.5t155.5 39.5q107 0 158 -43.5t51 -140.5z"/>
<glyph glyph-name="ae" horiz-adv-x="838" unicode="æ" d="M486 319h162v10q0 94 -76 94q-36 0 -61 -25.5t-25 -78.5zM247 95q55 0 102 40q-13 31 -18 86h-21q-61 -3 -92.5 -17.5t-31.5 -51.5q0 -57 61 -57zM580 -12q-131 0 -194 78q-79 -78 -191 -78q-48 0 -82 14t-50 36.5t-22.5 44t-6.5 44.5q0 47 18.5 81t45.5 52.5t69.5 29.5 t79.5 14t86 3v21q0 50 -14 72.5t-60 22.5q-37 0 -53.5 -16t-25.5 -56l-128 25q12 77 64.5 116.5t155.5 39.5q105 0 148 -71q26 33 71 52t98 19q108 0 161.5 -64.5t53.5 -176.5q0 -44 -3 -63h-317q1 -66 27 -94.5t78 -28.5q39 0 57.5 18.5t27.5 55.5l127 -31 q-15 -74 -72 -117t-149 -43z"/>
<glyph glyph-name="ccedilla" horiz-adv-x="544" unicode="ç" d="M181 -232l15 70q28 -7 48 -7q50 0 50 37q0 22 -15 29t-49 8l11 86q-104 12 -155.5 81.5t-51.5 179.5q0 135 69 207.5t197 72.5q95 0 152 -51t65 -146l-135 -20q-6 52 -24 76.5t-61 24.5q-49 0 -77 -32t-28 -116q0 -86 26.5 -124t76.5 -38q44 0 67 22.5t30 72.5l127 -24 q-12 -88 -66.5 -134.5t-139.5 -53.5l-4 -34q85 -15 85 -92q0 -53 -36 -81t-95 -28q-45 0 -82 14z"/>
<glyph glyph-name="egrave" horiz-adv-x="547" unicode="è" d="M265 572l-135 171h162l74 -162zM195 319h162q0 55 -19 79.5t-57 24.5q-36 0 -61 -25.5t-25 -78.5zM289 -12q-70 0 -121 22t-79.5 61t-41.5 85.5t-13 102.5q0 134 71.5 203.5t183.5 69.5q114 0 169 -64t55 -177q0 -49 -3 -68h-317q2 -64 27.5 -91t77.5 -27q38 0 57 18.5 t28 55.5l127 -31q-15 -74 -72 -117t-149 -43z"/>
<glyph glyph-name="eacute" horiz-adv-x="547" unicode="é" d="M442 743l-135 -171l-101 9l75 162h161zM195 319h162q0 55 -19 79.5t-57 24.5q-36 0 -61 -25.5t-25 -78.5zM289 -12q-70 0 -121 22t-79.5 61t-41.5 85.5t-13 102.5q0 134 71.5 203.5t183.5 69.5q114 0 169 -64t55 -177q0 -49 -3 -68h-317q2 -64 27.5 -91t77.5 -27 q38 0 57 18.5t28 55.5l127 -31q-15 -74 -72 -117t-149 -43z"/>
<glyph glyph-name="ecircumflex" horiz-adv-x="547" unicode="ê" d="M459 581l-100 -5l-73 94l-76 -95l-101 6l105 164h144zM195 319h162q0 55 -19 79.5t-57 24.5q-36 0 -61 -25.5t-25 -78.5zM289 -12q-70 0 -121 22t-79.5 61t-41.5 85.5t-13 102.5q0 134 71.5 203.5t183.5 69.5q114 0 169 -64t55 -177q0 -49 -3 -68h-317q2 -64 27.5 -91 t77.5 -27q38 0 57 18.5t28 55.5l127 -31q-15 -74 -72 -117t-149 -43z"/>
<glyph glyph-name="edieresis" horiz-adv-x="547" unicode="ë" d="M491 679q0 -38 -24 -60.5t-64 -22.5q-41 0 -65.5 22.5t-24.5 60.5t24.5 61t65.5 23q40 0 64 -23t24 -61zM256 679q0 -38 -24.5 -60.5t-63.5 -22.5q-41 0 -66 22.5t-25 60.5t25 61t66 23q39 0 63.5 -23t24.5 -61zM195 319h162q0 55 -19 79.5t-57 24.5q-36 0 -61 -25.5 t-25 -78.5zM289 -12q-70 0 -121 22t-79.5 61t-41.5 85.5t-13 102.5q0 134 71.5 203.5t183.5 69.5q114 0 169 -64t55 -177q0 -49 -3 -68h-317q2 -64 27.5 -91t77.5 -27q38 0 57 18.5t28 55.5l127 -31q-15 -74 -72 -117t-149 -43z"/>
<glyph glyph-name="igrave" horiz-adv-x="268" unicode="ì" d="M115 572l-135 171h162l74 -162zM211 521v-521h-151v521h151z"/>
<glyph glyph-name="iacute" horiz-adv-x="268" unicode="í" d="M292 743l-135 -171l-101 9l75 162h161zM211 521v-521h-151v521h151z"/>
<glyph glyph-name="icircumflex" horiz-adv-x="268" unicode="î" d="M309 581l-100 -5l-73 94l-76 -95l-101 6l105 164h144zM211 521v-521h-151v521h151z"/>
<glyph glyph-name="idieresis" horiz-adv-x="268" unicode="ï" d="M341 679q0 -38 -24 -60.5t-64 -22.5q-41 0 -65.5 22.5t-24.5 60.5t24.5 61t65.5 23q40 0 64 -23t24 -61zM106 679q0 -38 -24.5 -60.5t-63.5 -22.5q-41 0 -66 22.5t-25 60.5t25 61t66 23q39 0 63.5 -23t24.5 -61zM211 521v-521h-151v521h151z"/>
<glyph glyph-name="eth" horiz-adv-x="588" unicode="ð" d="M189 252q0 -159 101 -159q57 0 83.5 52.5t26.5 159.5q0 27 -5 65q-43 33 -100 33q-52 0 -79 -34.5t-27 -116.5zM31 249q0 111 58.5 184t167.5 73q62 0 120 -27l4 5q-27 72 -99.5 117t-143.5 57l54 122q92 -17 166 -62l108 70l66 -94l-83 -53q104 -122 104 -322 q0 -155 -65 -243t-205 -88q-126 0 -189 70t-63 191z"/>
<glyph glyph-name="ntilde" d="M212 732q35 0 81.5 -22t66.5 -22q17 0 23.5 9.5t6.5 34.5l76 -4q2 -20 2 -28q0 -53 -23.5 -83t-69.5 -30q-38 0 -86 22t-66 22q-29 0 -29 -32q0 -9 1 -15l-82 3q-2 18 -2 27q0 54 27.5 86t73.5 32zM530 356v-356h-151v330q0 80 -69 80q-59 0 -102 -41v-369h-151v521h134 l8 -52q70 63 166 63q86 0 125.5 -42.5t39.5 -133.5z" unicode="ñ"/>
<glyph glyph-name="ograve" horiz-adv-x="587" unicode="ò" d="M280 572l-135 171h162l74 -162zM295 100q51 0 76 37.5t25 126.5q0 83 -23.5 118.5t-74.5 35.5q-53 0 -79.5 -37t-26.5 -119q0 -87 23.5 -124.5t79.5 -37.5zM288 -12q-254 0 -254 270q0 129 67.5 201.5t200.5 72.5q129 0 190 -70.5t61 -192.5q0 -134 -64.5 -207.5 t-200.5 -73.5z"/>
<glyph glyph-name="oacute" horiz-adv-x="587" unicode="ó" d="M457 743l-135 -171l-101 9l75 162h161zM295 100q51 0 76 37.5t25 126.5q0 83 -23.5 118.5t-74.5 35.5q-53 0 -79.5 -37t-26.5 -119q0 -87 23.5 -124.5t79.5 -37.5zM288 -12q-254 0 -254 270q0 129 67.5 201.5t200.5 72.5q129 0 190 -70.5t61 -192.5q0 -134 -64.5 -207.5 t-200.5 -73.5z"/>
<glyph glyph-name="ocircumflex" horiz-adv-x="587" unicode="ô" d="M474 581l-100 -5l-73 94l-76 -95l-101 6l105 164h144zM295 100q51 0 76 37.5t25 126.5q0 83 -23.5 118.5t-74.5 35.5q-53 0 -79.5 -37t-26.5 -119q0 -87 23.5 -124.5t79.5 -37.5zM288 -12q-254 0 -254 270q0 129 67.5 201.5t200.5 72.5q129 0 190 -70.5t61 -192.5 q0 -134 -64.5 -207.5t-200.5 -73.5z"/>
<glyph glyph-name="otilde" horiz-adv-x="587" unicode="õ" d="M223 732q35 0 81.5 -22t66.5 -22q17 0 23.5 9.5t6.5 34.5l76 -4q2 -20 2 -28q0 -53 -23.5 -83t-69.5 -30q-38 0 -86 22t-66 22q-29 0 -29 -32q0 -9 1 -15l-82 3q-2 18 -2 27q0 54 27.5 86t73.5 32zM295 100q51 0 76 37.5t25 126.5q0 83 -23.5 118.5t-74.5 35.5 q-53 0 -79.5 -37t-26.5 -119q0 -87 23.5 -124.5t79.5 -37.5zM288 -12q-254 0 -254 270q0 129 67.5 201.5t200.5 72.5q129 0 190 -70.5t61 -192.5q0 -134 -64.5 -207.5t-200.5 -73.5z"/>
<glyph glyph-name="odieresis" horiz-adv-x="587" unicode="ö" d="M506 679q0 -38 -24 -60.5t-64 -22.5q-41 0 -65.5 22.5t-24.5 60.5t24.5 61t65.5 23q40 0 64 -23t24 -61zM271 679q0 -38 -24.5 -60.5t-63.5 -22.5q-41 0 -66 22.5t-25 60.5t25 61t66 23q39 0 63.5 -23t24.5 -61zM295 100q51 0 76 37.5t25 126.5q0 83 -23.5 118.5 t-74.5 35.5q-53 0 -79.5 -37t-26.5 -119q0 -87 23.5 -124.5t79.5 -37.5zM288 -12q-254 0 -254 270q0 129 67.5 201.5t200.5 72.5q129 0 190 -70.5t61 -192.5q0 -134 -64.5 -207.5t-200.5 -73.5z"/>
<glyph glyph-name="divide" horiz-adv-x="570" unicode="÷" d="M361 487q0 -73 -79 -73t-79 73q0 33 20.5 53.5t58.5 20.5t58.5 -20.5t20.5 -53.5zM478 261h-387v120h387v-120zM361 155q0 -74 -79 -74t-79 74q0 33 20.5 53.5t58.5 20.5t58.5 -20.5t20.5 -53.5z"/>
<glyph glyph-name="oslash" horiz-adv-x="587" unicode="ø" d="M192 262q0 -55 7 -84l106 240h-7q-53 0 -79.5 -37t-26.5 -119zM295 100q51 0 76 37.5t25 126.5q0 60 -12 94l-113 -256q16 -2 24 -2zM288 -12q-32 0 -65 5l-28 -65h-106l43 99q-98 64 -98 231q0 129 67.5 201.5t200.5 72.5q31 0 52 -4l26 58h105l-39 -88 q107 -61 107 -229q0 -134 -64.5 -207.5t-200.5 -73.5z"/>
<glyph glyph-name="ugrave" horiz-adv-x="578" unicode="ù" d="M268 572l-135 171h162l74 -162zM55 162v359h151v-329q0 -43 15 -62t51 -19q56 0 99 41v369h151v-521h-130l-11 56q-58 -67 -166 -67q-160 0 -160 173z"/>
<glyph glyph-name="uacute" horiz-adv-x="578" unicode="ú" d="M445 743l-135 -171l-101 9l75 162h161zM55 162v359h151v-329q0 -43 15 -62t51 -19q56 0 99 41v369h151v-521h-130l-11 56q-58 -67 -166 -67q-160 0 -160 173z"/>
<glyph glyph-name="ucircumflex" horiz-adv-x="578" unicode="û" d="M462 581l-100 -5l-73 94l-76 -95l-101 6l105 164h144zM55 162v359h151v-329q0 -43 15 -62t51 -19q56 0 99 41v369h151v-521h-130l-11 56q-58 -67 -166 -67q-160 0 -160 173z"/>
<glyph glyph-name="udieresis" horiz-adv-x="578" unicode="ü" d="M494 679q0 -38 -24 -60.5t-64 -22.5q-41 0 -65.5 22.5t-24.5 60.5t24.5 61t65.5 23q40 0 64 -23t24 -61zM259 679q0 -38 -24.5 -60.5t-63.5 -22.5q-41 0 -66 22.5t-25 60.5t25 61t66 23q39 0 63.5 -23t24.5 -61zM55 162v359h151v-329q0 -43 15 -62t51 -19q56 0 99 41v369 h151v-521h-130l-11 56q-58 -67 -166 -67q-160 0 -160 173z"/>
<glyph glyph-name="yacute" horiz-adv-x="526" unicode="ý" d="M420 743l-135 -171l-101 9l75 162h161zM194 -11l-198 532h163l109 -363h3l105 363h155q-65 -184 -207 -572q-35 -95 -76.5 -133.5t-119.5 -38.5q-68 0 -114 22l11 109q50 -16 79 -16q52 0 74 56z"/>
<glyph glyph-name="thorn" horiz-adv-x="592" unicode="þ" d="M209 372v-228q13 -13 39 -24t52 -11q98 0 98 159q0 77 -22.5 110.5t-69.5 33.5q-49 0 -97 -40zM59 -212v967h148v-281q61 58 155 58q88 0 141 -62t53 -198q0 -146 -59 -215t-153 -69q-85 0 -138 50v-250h-147z"/>
<glyph glyph-name="ydieresis" horiz-adv-x="526" unicode="ÿ" d="M469 679q0 -38 -24 -60.5t-64 -22.5q-41 0 -65.5 22.5t-24.5 60.5t24.5 61t65.5 23q40 0 64 -23t24 -61zM234 679q0 -38 -24.5 -60.5t-63.5 -22.5q-41 0 -66 22.5t-25 60.5t25 61t66 23q39 0 63.5 -23t24.5 -61zM194 -11l-198 532h163l109 -363h3l105 363h155 q-65 -184 -207 -572q-35 -95 -76.5 -133.5t-119.5 -38.5q-68 0 -114 22l11 109q50 -16 79 -16q52 0 74 56z"/>
<glyph glyph-name="Amacron" horiz-adv-x="709" unicode="Ā" d="M504 784h-317v103h317v-103zM438 299l-90 280h-4l-89 -280h183zM251 724h192l256 -724h-169l-60 176h-241l-56 -176h-159z"/>
<glyph glyph-name="amacron" horiz-adv-x="558" unicode="ā" d="M425 601h-311v102h311v-102zM334 129v92h-24q-61 -3 -92.5 -17.5t-31.5 -51.5q0 -57 61 -57q53 0 87 34zM481 348v-218q0 -23 6 -31.5t25 -8.5q12 0 31 6l4 -87q-36 -20 -96 -20q-92 0 -107 66q-51 -67 -155 -67q-46 0 -78.5 14t-48 36.5t-22 44t-6.5 44.5q0 46 19 80 t47.5 53t70.5 30.5t79.5 15t82.5 3.5v19q0 50 -14 72.5t-60 22.5q-37 0 -53.5 -16t-25.5 -56l-128 25q12 77 64.5 116.5t155.5 39.5q107 0 158 -43.5t51 -140.5z"/>
<glyph glyph-name="Abreve" horiz-adv-x="709" unicode="Ă" d="M351 861q33 0 50.5 15t25.5 52l96 -6q-16 -153 -177 -153q-156 0 -166 151l100 10q6 -38 22 -53.5t49 -15.5zM438 299l-90 280h-4l-89 -280h183zM251 724h192l256 -724h-169l-60 176h-241l-56 -176h-159z"/>
<glyph glyph-name="abreve" horiz-adv-x="558" unicode="ă" d="M350 737l96 -7q-6 -82 -52.5 -121.5t-125.5 -39.5q-161 0 -167 158l100 11q5 -42 22 -59.5t50 -17.5q35 0 53 16.5t24 59.5zM334 129v92h-24q-61 -3 -92.5 -17.5t-31.5 -51.5q0 -57 61 -57q53 0 87 34zM481 348v-218q0 -23 6 -31.5t25 -8.5q12 0 31 6l4 -87 q-36 -20 -96 -20q-92 0 -107 66q-51 -67 -155 -67q-46 0 -78.5 14t-48 36.5t-22 44t-6.5 44.5q0 46 19 80t47.5 53t70.5 30.5t79.5 15t82.5 3.5v19q0 50 -14 72.5t-60 22.5q-37 0 -53.5 -16t-25.5 -56l-128 25q12 77 64.5 116.5t155.5 39.5q107 0 158 -43.5t51 -140.5z"/>
<glyph glyph-name="Aogonek" horiz-adv-x="709" unicode="Ą" d="M438 299l-90 280h-4l-89 -280h183zM665 -109l65 -30q-17 -48 -54 -74.5t-86 -26.5q-57 0 -86.5 25.5t-29.5 72.5q0 77 101 142h-45l-60 176h-241l-56 -176h-159l237 724h192l256 -724q-113 -52 -113 -117q0 -33 31 -33q30 0 48 41z"/>
<glyph glyph-name="aogonek" horiz-adv-x="558" unicode="ą" d="M334 129v92h-24q-61 -3 -92.5 -17.5t-31.5 -51.5q0 -57 61 -57q53 0 87 34zM506 -109l65 -30q-17 -48 -54 -74.5t-86 -26.5q-57 0 -86.5 25.5t-29.5 72.5q0 72 85 137q-45 12 -56 60q-51 -67 -155 -67q-46 0 -78.5 14t-48 36.5t-22 44t-6.5 44.5q0 46 19 80t47.5 53 t70.5 30.5t79.5 15t82.5 3.5v19q0 50 -14 72.5t-60 22.5q-37 0 -53.5 -16t-25.5 -56l-128 25q12 77 64.5 116.5t155.5 39.5q107 0 158 -43.5t51 -140.5v-218q0 -23 6 -31.5t25 -8.5q12 0 31 6l4 -87q-46 -11 -83 -52.5t-37 -73.5q0 -33 31 -33q30 0 48 41z"/>
<glyph glyph-name="Cacute" horiz-adv-x="695" unicode="Ć" d="M551 916l-146 -148l-107 8l91 140h162zM372 -12q-334 0 -334 366q0 175 91 279t258 104q128 0 203.5 -64t81.5 -196l-141 -12q-7 77 -41.5 111t-104.5 34q-188 0 -188 -248q0 -131 44 -189t133 -58q72 0 108 33.5t49 96.5l139 -24q-17 -120 -101.5 -176.5t-196.5 -56.5z "/>
<glyph glyph-name="cacute" horiz-adv-x="544" unicode="ć" d="M456 743l-135 -171l-101 9l75 162h161zM285 -12q-126 0 -188.5 71t-62.5 193q0 135 69 207.5t197 72.5q95 0 152 -51t65 -146l-135 -20q-6 52 -24 76.5t-61 24.5q-49 0 -77 -32t-28 -116q0 -86 26.5 -124t76.5 -38q44 0 67 22.5t30 72.5l127 -24q-14 -94 -76.5 -141.5 t-157.5 -47.5z"/>
<glyph glyph-name="Ccircumflex" horiz-adv-x="695" unicode="Ĉ" d="M460 769l-72 72l-75 -73l-102 7l107 142h140l102 -142zM372 -12q-334 0 -334 366q0 175 91 279t258 104q128 0 203.5 -64t81.5 -196l-141 -12q-7 77 -41.5 111t-104.5 34q-188 0 -188 -248q0 -131 44 -189t133 -58q72 0 108 33.5t49 96.5l139 -24q-17 -120 -101.5 -176.5 t-196.5 -56.5z"/>
<glyph glyph-name="ccircumflex" horiz-adv-x="544" unicode="ĉ" d="M473 581l-100 -5l-73 94l-76 -95l-101 6l105 164h144zM285 -12q-126 0 -188.5 71t-62.5 193q0 135 69 207.5t197 72.5q95 0 152 -51t65 -146l-135 -20q-6 52 -24 76.5t-61 24.5q-49 0 -77 -32t-28 -116q0 -86 26.5 -124t76.5 -38q44 0 67 22.5t30 72.5l127 -24 q-14 -94 -76.5 -141.5t-157.5 -47.5z"/>
<glyph glyph-name="Cdotaccent" horiz-adv-x="695" unicode="Ċ" d="M476 868q0 -45 -23.5 -69t-67.5 -24q-43 0 -66.5 24t-23.5 69q0 44 23.5 67t66.5 23q91 0 91 -90zM372 -12q-334 0 -334 366q0 175 91 279t258 104q128 0 203.5 -64t81.5 -196l-141 -12q-7 77 -41.5 111t-104.5 34q-188 0 -188 -248q0 -131 44 -189t133 -58 q72 0 108 33.5t49 96.5l139 -24q-17 -120 -101.5 -176.5t-196.5 -56.5z"/>
<glyph glyph-name="cdotaccent" horiz-adv-x="544" unicode="ċ" d="M390 681q0 -44 -23.5 -68t-67.5 -24q-43 0 -66.5 24t-23.5 68t23.5 67.5t66.5 23.5q91 0 91 -91zM285 -12q-126 0 -188.5 71t-62.5 193q0 135 69 207.5t197 72.5q95 0 152 -51t65 -146l-135 -20q-6 52 -24 76.5t-61 24.5q-49 0 -77 -32t-28 -116q0 -86 26.5 -124 t76.5 -38q44 0 67 22.5t30 72.5l127 -24q-14 -94 -76.5 -141.5t-157.5 -47.5z"/>
<glyph glyph-name="Ccaron" horiz-adv-x="695" unicode="Č" d="M313 918l72 -72l75 73l102 -7l-107 -142h-140l-102 142zM372 -12q-334 0 -334 366q0 175 91 279t258 104q128 0 203.5 -64t81.5 -196l-141 -12q-7 77 -41.5 111t-104.5 34q-188 0 -188 -248q0 -131 44 -189t133 -58q72 0 108 33.5t49 96.5l139 -24 q-17 -120 -101.5 -176.5t-196.5 -56.5z"/>
<glyph glyph-name="ccaron" horiz-adv-x="544" unicode="č" d="M125 736l102 5l73 -93l76 94l99 -6l-105 -164h-144zM285 -12q-126 0 -188.5 71t-62.5 193q0 135 69 207.5t197 72.5q95 0 152 -51t65 -146l-135 -20q-6 52 -24 76.5t-61 24.5q-49 0 -77 -32t-28 -116q0 -86 26.5 -124t76.5 -38q44 0 67 22.5t30 72.5l127 -24 q-14 -94 -76.5 -141.5t-157.5 -47.5z"/>
<glyph glyph-name="Dcaron" horiz-adv-x="724" unicode="Ď" d="M258 918l72 -72l75 73l102 -7l-107 -142h-140l-102 142zM228 124h76q121 0 173 61.5t52 179.5q0 131 -51 183t-163 52h-87v-476zM311 0h-237v724h254q183 0 271 -91.5t88 -259.5q0 -173 -94 -273t-282 -100z"/>
<glyph glyph-name="dcaron" horiz-adv-x="719" unicode="ď" d="M575 562l33 193h138l-66 -202zM384 144v239q-39 29 -84 29q-105 0 -105 -157q0 -148 100 -148q50 0 89 37zM534 755v-755h-126l-9 51l-3 1q-58 -64 -154 -64t-150.5 63.5t-54.5 198.5q0 145 64 213.5t156 68.5q85 0 132 -44v267h145z"/>
<glyph glyph-name="Dcroat" horiz-adv-x="724" unicode="Đ" d="M228 124h76q121 0 173 61.5t52 179.5q0 131 -51 183t-163 52h-87v-166h171v-129h-171v-181zM311 0h-237v305h-67v129h67v290h254q183 0 271 -91.5t88 -259.5q0 -173 -94 -273t-282 -100z"/>
<glyph glyph-name="dslash" horiz-adv-x="591" unicode="đ" d="M384 144v231q-39 29 -84 29q-105 0 -105 -152q0 -145 100 -145q50 0 89 37zM214 576v101h175v78h145v-78h64v-101h-64v-576h-126l-9 51l-3 1q-58 -64 -154 -64t-150.5 63t-54.5 196q0 142 64 209.5t156 67.5q82 0 132 -44v96h-175z"/>
<glyph glyph-name="Emacron" d="M465 784h-317v103h317v-103zM228 299v-169h323v-130h-477v724h459v-129h-305v-170h287v-126h-287z" unicode="Ē"/>
<glyph glyph-name="emacron" horiz-adv-x="547" unicode="ē" d="M440 601h-311v102h311v-102zM195 319h162q0 55 -19 79.5t-57 24.5q-36 0 -61 -25.5t-25 -78.5zM289 -12q-70 0 -121 22t-79.5 61t-41.5 85.5t-13 102.5q0 134 71.5 203.5t183.5 69.5q114 0 169 -64t55 -177q0 -49 -3 -68h-317q2 -64 27.5 -91t77.5 -27q38 0 57 18.5 t28 55.5l127 -31q-15 -74 -72 -117t-149 -43z"/>
<glyph glyph-name="Ebreve" d="M312 861q33 0 50.5 15t25.5 52l96 -6q-16 -153 -177 -153q-156 0 -166 151l100 10q6 -38 22 -53.5t49 -15.5zM228 299v-169h323v-130h-477v724h459v-129h-305v-170h287v-126h-287z" unicode="Ĕ"/>
<glyph glyph-name="ebreve" horiz-adv-x="547" unicode="ĕ" d="M365 737l96 -7q-6 -82 -52.5 -121.5t-125.5 -39.5q-161 0 -167 158l100 11q5 -42 22 -59.5t50 -17.5q35 0 53 16.5t24 59.5zM195 319h162q0 55 -19 79.5t-57 24.5q-36 0 -61 -25.5t-25 -78.5zM289 -12q-70 0 -121 22t-79.5 61t-41.5 85.5t-13 102.5q0 134 71.5 203.5 t183.5 69.5q114 0 169 -64t55 -177q0 -49 -3 -68h-317q2 -64 27.5 -91t77.5 -27q38 0 57 18.5t28 55.5l127 -31q-15 -74 -72 -117t-149 -43z"/>
<glyph glyph-name="Edotaccent" d="M397 868q0 -45 -23.5 -69t-67.5 -24q-43 0 -66.5 24t-23.5 69q0 44 23.5 67t66.5 23q91 0 91 -90zM228 299v-169h323v-130h-477v724h459v-129h-305v-170h287v-126h-287z" unicode="Ė"/>
<glyph glyph-name="edotaccent" horiz-adv-x="547" unicode="ė" d="M376 681q0 -44 -23.5 -68t-67.5 -24q-43 0 -66.5 24t-23.5 68t23.5 67.5t66.5 23.5q91 0 91 -91zM195 319h162q0 55 -19 79.5t-57 24.5q-36 0 -61 -25.5t-25 -78.5zM289 -12q-70 0 -121 22t-79.5 61t-41.5 85.5t-13 102.5q0 134 71.5 203.5t183.5 69.5q114 0 169 -64 t55 -177q0 -49 -3 -68h-317q2 -64 27.5 -91t77.5 -27q38 0 57 18.5t28 55.5l127 -31q-15 -74 -72 -117t-149 -43z"/>
<glyph glyph-name="Eogonek" d="M502 -109l65 -30q-17 -48 -54 -74.5t-86 -26.5q-57 0 -86.5 25.5t-29.5 72.5q0 77 92 142h-329v724h459v-129h-305v-170h287v-126h-287v-169h323v-130h-50q-41 -39 -59.5 -64.5t-18.5 -52.5q0 -33 31 -33q30 0 48 41z" unicode="Ę"/>
<glyph glyph-name="eogonek" horiz-adv-x="547" unicode="ę" d="M195 319h162q0 55 -19 79.5t-57 24.5q-36 0 -61 -25.5t-25 -78.5zM397 -109l65 -30q-17 -48 -54 -74.5t-86 -26.5q-57 0 -86.5 25.5t-29.5 72.5q0 67 77 130q-68 1 -118 23.5t-77.5 61.5t-40.5 85t-13 101q0 134 71.5 203.5t183.5 69.5q114 0 169 -64t55 -177 q0 -49 -3 -68h-317q2 -64 27.5 -91t77.5 -27q38 0 57 18.5t28 55.5l127 -31q-15 -81 -97 -137q-95 -66 -95 -128q0 -33 31 -33q30 0 48 41z"/>
<glyph glyph-name="Ecaron" d="M234 918l72 -72l75 73l102 -7l-107 -142h-140l-102 142zM228 299v-169h323v-130h-477v724h459v-129h-305v-170h287v-126h-287z" unicode="Ě"/>
<glyph glyph-name="ecaron" horiz-adv-x="547" unicode="ě" d="M111 736l102 5l73 -93l76 94l99 -6l-105 -164h-144zM195 319h162q0 55 -19 79.5t-57 24.5q-36 0 -61 -25.5t-25 -78.5zM289 -12q-70 0 -121 22t-79.5 61t-41.5 85.5t-13 102.5q0 134 71.5 203.5t183.5 69.5q114 0 169 -64t55 -177q0 -49 -3 -68h-317q2 -64 27.5 -91 t77.5 -27q38 0 57 18.5t28 55.5l127 -31q-15 -74 -72 -117t-149 -43z"/>
<glyph glyph-name="Gcircumflex" horiz-adv-x="739" unicode="Ĝ" d="M460 769l-72 72l-75 -73l-102 7l107 142h140l102 -142zM569 0l-17 89q-23 -47 -80 -74t-127 -27q-157 0 -232 97.5t-75 264.5q0 180 90.5 283.5t260.5 103.5q125 0 201 -61.5t85 -191.5l-144 -14q-7 65 -40 102.5t-105 37.5q-188 0 -188 -246q0 -130 43.5 -191t139.5 -61 q70 0 109 36t39 90v26h-132v113h284v-377h-112z"/>
<glyph glyph-name="gcircumflex" horiz-adv-x="560" unicode="ĝ" d="M453 581l-100 -5l-73 94l-76 -95l-101 6l105 164h144zM395 -75q0 37 -64 41l-145 9q-31 -24 -31 -50q0 -53 127 -53q56 0 84.5 11.5t28.5 41.5zM369 347q0 79 -89 79q-95 0 -95 -79q0 -80 93 -80q42 0 66.5 21t24.5 59zM274 532q89 0 138 -32q36 79 96 79q20 0 42 -9v-99 q-9 1 -25 1q-29 0 -61 -9q43 -49 43 -117q0 -86 -64 -136.5t-165 -50.5q-47 0 -87 11q-19 -19 -19 -32q0 -12 9.5 -18.5t37.5 -8.5l148 -9q88 -6 131.5 -40t43.5 -110q0 -91 -74.5 -134t-197.5 -43q-136 0 -193.5 31.5t-57.5 89.5q0 36 25.5 61t68.5 33v4q-76 22 -76 88 q0 36 19.5 61t61.5 55q-76 44 -76 141q0 85 62 139t170 54z"/>
<glyph glyph-name="Gbreve" horiz-adv-x="739" unicode="Ğ" d="M391 861q33 0 50.5 15t25.5 52l96 -6q-16 -153 -177 -153q-156 0 -166 151l100 10q6 -38 22 -53.5t49 -15.5zM569 0l-17 89q-23 -47 -80 -74t-127 -27q-157 0 -232 97.5t-75 264.5q0 180 90.5 283.5t260.5 103.5q125 0 201 -61.5t85 -191.5l-144 -14q-7 65 -40 102.5 t-105 37.5q-188 0 -188 -246q0 -130 43.5 -191t139.5 -61q70 0 109 36t39 90v26h-132v113h284v-377h-112z"/>
<glyph glyph-name="gbreve" horiz-adv-x="560" unicode="ğ" d="M359 737l96 -7q-6 -82 -52.5 -121.5t-125.5 -39.5q-161 0 -167 158l100 11q5 -42 22 -59.5t50 -17.5q35 0 53 16.5t24 59.5zM395 -75q0 37 -64 41l-145 9q-31 -24 -31 -50q0 -53 127 -53q56 0 84.5 11.5t28.5 41.5zM369 347q0 79 -89 79q-95 0 -95 -79q0 -80 93 -80 q42 0 66.5 21t24.5 59zM274 532q89 0 138 -32q36 79 96 79q20 0 42 -9v-99q-9 1 -25 1q-29 0 -61 -9q43 -49 43 -117q0 -86 -64 -136.5t-165 -50.5q-47 0 -87 11q-19 -19 -19 -32q0 -12 9.5 -18.5t37.5 -8.5l148 -9q88 -6 131.5 -40t43.5 -110q0 -91 -74.5 -134t-197.5 -43 q-136 0 -193.5 31.5t-57.5 89.5q0 36 25.5 61t68.5 33v4q-76 22 -76 88q0 36 19.5 61t61.5 55q-76 44 -76 141q0 85 62 139t170 54z"/>
<glyph glyph-name="Gdotaccent" horiz-adv-x="739" unicode="Ġ" d="M476 868q0 -45 -23.5 -69t-67.5 -24q-43 0 -66.5 24t-23.5 69q0 44 23.5 67t66.5 23q91 0 91 -90zM569 0l-17 89q-23 -47 -80 -74t-127 -27q-157 0 -232 97.5t-75 264.5q0 180 90.5 283.5t260.5 103.5q125 0 201 -61.5t85 -191.5l-144 -14q-7 65 -40 102.5t-105 37.5 q-188 0 -188 -246q0 -130 43.5 -191t139.5 -61q70 0 109 36t39 90v26h-132v113h284v-377h-112z"/>
<glyph glyph-name="gdotaccent" horiz-adv-x="560" unicode="ġ" d="M370 681q0 -44 -23.5 -68t-67.5 -24q-43 0 -66.5 24t-23.5 68t23.5 67.5t66.5 23.5q91 0 91 -91zM395 -75q0 37 -64 41l-145 9q-31 -24 -31 -50q0 -53 127 -53q56 0 84.5 11.5t28.5 41.5zM369 347q0 79 -89 79q-95 0 -95 -79q0 -80 93 -80q42 0 66.5 21t24.5 59zM274 532 q89 0 138 -32q36 79 96 79q20 0 42 -9v-99q-9 1 -25 1q-29 0 -61 -9q43 -49 43 -117q0 -86 -64 -136.5t-165 -50.5q-47 0 -87 11q-19 -19 -19 -32q0 -12 9.5 -18.5t37.5 -8.5l148 -9q88 -6 131.5 -40t43.5 -110q0 -91 -74.5 -134t-197.5 -43q-136 0 -193.5 31.5t-57.5 89.5 q0 36 25.5 61t68.5 33v4q-76 22 -76 88q0 36 19.5 61t61.5 55q-76 44 -76 141q0 85 62 139t170 54z"/>
<glyph glyph-name="Gcommaaccent" horiz-adv-x="739" unicode="Ģ" d="M262 -259l46 191h140l-83 -206zM569 0l-17 89q-23 -47 -80 -74t-127 -27q-157 0 -232 97.5t-75 264.5q0 180 90.5 283.5t260.5 103.5q125 0 201 -61.5t85 -191.5l-144 -14q-7 65 -40 102.5t-105 37.5q-188 0 -188 -246q0 -130 43.5 -191t139.5 -61q70 0 109 36t39 90v26 h-132v113h284v-377h-112z"/>
<glyph glyph-name="gcommaaccent" horiz-adv-x="560" unicode="ģ" d="M383 761l-46 -192h-140l83 207zM395 -75q0 37 -64 41l-145 9q-31 -24 -31 -50q0 -53 127 -53q56 0 84.5 11.5t28.5 41.5zM369 347q0 79 -89 79q-95 0 -95 -79q0 -80 93 -80q42 0 66.5 21t24.5 59zM274 532q89 0 138 -32q36 79 96 79q20 0 42 -9v-99q-9 1 -25 1 q-29 0 -61 -9q43 -49 43 -117q0 -86 -64 -136.5t-165 -50.5q-47 0 -87 11q-19 -19 -19 -32q0 -12 9.5 -18.5t37.5 -8.5l148 -9q88 -6 131.5 -40t43.5 -110q0 -91 -74.5 -134t-197.5 -43q-136 0 -193.5 31.5t-57.5 89.5q0 36 25.5 61t68.5 33v4q-76 22 -76 88q0 36 19.5 61 t61.5 55q-76 44 -76 141q0 85 62 139t170 54z"/>
<glyph glyph-name="Hcircumflex" horiz-adv-x="733" unicode="Ĥ" d="M441 769l-72 72l-75 -73l-102 7l107 142h140l102 -142zM660 724v-724h-155v297h-277v-297h-154v724h154v-294h277v294h155z"/>
<glyph glyph-name="hcircumflex" d="M206 791l-72 72l-75 -73l-102 7l107 142h140l102 -142zM530 356v-356h-151v329q0 80 -69 80q-59 0 -102 -41v-368h-151v755h150v-282q75 59 161 59q84 0 123 -42.5t39 -133.5z" unicode="ĥ"/>
<glyph glyph-name="Hbar" horiz-adv-x="733" unicode="Ħ" d="M228 430h277v87h-277v-87zM660 724v-94h66v-113h-66v-517h-155v297h-277v-297h-154v517h-67v113h67v94h154v-94h277v94h155z"/>
<glyph glyph-name="hbar" d="M-1 576v101h58v78h150v-78h175v-101h-175v-110q75 59 161 59q84 0 123 -42.5t39 -133.5v-349h-151v322q0 80 -69 80q-59 0 -102 -41v-361h-151v576h-58z" unicode="ħ"/>
<glyph glyph-name="Itilde" horiz-adv-x="302" unicode="Ĩ" d="M76 930q35 0 81.5 -21.5t66.5 -21.5q17 0 23.5 9.5t6.5 34.5l76 -4q2 -20 2 -28q0 -53 -23.5 -83t-69.5 -30q-38 0 -86 22t-66 22q-29 0 -29 -32q0 -9 1 -15l-82 3q-2 18 -2 27q0 54 27.5 85.5t73.5 31.5zM228 724v-724h-154v724h154z"/>
<glyph glyph-name="itilde" horiz-adv-x="268" unicode="ĩ" d="M58 732q35 0 81.5 -22t66.5 -22q17 0 23.5 9.5t6.5 34.5l76 -4q2 -20 2 -28q0 -53 -23.5 -83t-69.5 -30q-38 0 -86 22t-66 22q-29 0 -29 -32q0 -9 1 -15l-82 3q-2 18 -2 27q0 54 27.5 86t73.5 32zM211 521v-521h-151v521h151z"/>
<glyph glyph-name="Imacron" horiz-adv-x="302" unicode="Ī" d="M309 784h-317v103h317v-103zM228 724v-724h-154v724h154z"/>
<glyph glyph-name="imacron" horiz-adv-x="268" unicode="ī" d="M290 601h-311v102h311v-102zM211 521v-521h-151v521h151z"/>
<glyph glyph-name="Ibreve" horiz-adv-x="302" unicode="Ĭ" d="M156 861q33 0 50.5 15t25.5 52l96 -6q-16 -153 -177 -153q-156 0 -166 151l100 10q6 -38 22 -53.5t49 -15.5zM228 724v-724h-154v724h154z"/>
<glyph glyph-name="ibreve" horiz-adv-x="268" unicode="ĭ" d="M215 737l96 -7q-6 -82 -52.5 -121.5t-125.5 -39.5q-161 0 -167 158l100 11q5 -42 22 -59.5t50 -17.5q35 0 53 16.5t24 59.5zM211 521v-521h-151v521h151z"/>
<glyph glyph-name="Iogonek" horiz-adv-x="302" unicode="Į" d="M206 -109l65 -30q-17 -48 -54 -74.5t-86 -26.5q-57 0 -86.5 25.5t-29.5 72.5q0 41 27 74.5t74 67.5h-42v724h154v-724q-54 -34 -77.5 -61t-23.5 -56q0 -33 31 -33q30 0 48 41z"/>
<glyph glyph-name="iogonek" horiz-adv-x="268" unicode="į" d="M227 681q0 -44 -24 -68t-67 -24q-44 0 -67.5 24t-23.5 68q0 91 91 91q43 0 67 -23.5t24 -67.5zM188 -109l65 -30q-17 -48 -54 -74.5t-86 -26.5q-57 0 -86.5 25.5t-29.5 72.5q0 77 107 142h-44v521h151v-521q-55 -34 -78.5 -61t-23.5 -56q0 -33 31 -33q30 0 48 41z"/>
<glyph glyph-name="Idotaccent" horiz-adv-x="302" unicode="İ" d="M241 868q0 -45 -23.5 -69t-67.5 -24q-43 0 -66.5 24t-23.5 69q0 44 23.5 67t66.5 23q91 0 91 -90zM228 724v-724h-154v724h154z"/>
<glyph glyph-name="dotlessi" horiz-adv-x="268" unicode="ı" d="M211 521v-521h-151v521h151z"/>
<glyph glyph-name="IJ" horiz-adv-x="832" unicode="Ĳ" d="M610 199v525h155v-521q0 -215 -228 -215q-101 0 -158.5 47t-61.5 158l148 22q4 -52 18.5 -76.5t55.5 -24.5q37 0 54 19t17 66zM228 724v-724h-154v724h154z"/>
<glyph glyph-name="Jcircumflex" horiz-adv-x="530" unicode="Ĵ" d="M458 769l-72 72l-75 -73l-102 7l107 142h140l102 -142zM308 199v525h155v-521q0 -215 -228 -215q-101 0 -158.5 47t-61.5 158l148 22q4 -52 18.5 -76.5t55.5 -24.5q37 0 54 19t17 66z"/>
<glyph glyph-name="jcircumflex" horiz-adv-x="266" unicode="ĵ" d="M309 581l-100 -5l-73 94l-76 -95l-101 6l105 164h144zM25 -223q-82 0 -123 28l11 113q43 -20 82 -20q65 0 65 78v545h151v-562q0 -182 -186 -182z"/>
<glyph glyph-name="Kcommaaccent" horiz-adv-x="673" unicode="Ķ" d="M241 -259l46 191h140l-83 -206zM227 724v-310l281 310h164l-265 -301l261 -423h-180l-191 303l-70 -76v-227h-153v724h153z"/>
<glyph glyph-name="kcommaaccent" horiz-adv-x="564" unicode="ķ" d="M184 -259l46 191h140l-83 -206zM210 755v-416l172 182h167l-173 -187l186 -334h-167l-135 238l-50 -49v-189h-151v755h151z"/>
<glyph glyph-name="kgreenlandic" horiz-adv-x="564" unicode="ĸ" d="M210 521v-182l172 182h167l-173 -187l186 -334h-167l-135 238l-50 -49v-189h-151v521h151z"/>
<glyph glyph-name="Lacute" horiz-adv-x="568" unicode="Ĺ" d="M314 916l-146 -148l-107 8l91 140h162zM228 724v-594h310v-130h-464v724h154z"/>
<glyph glyph-name="lacute" horiz-adv-x="268" unicode="ĺ" d="M294 937l-146 -148l-107 8l91 140h162zM211 755v-755h-151v755h151z"/>
<glyph glyph-name="Lcommaaccent" horiz-adv-x="568" unicode="Ļ" d="M204 -259l46 191h140l-83 -206zM228 724v-594h310v-130h-464v724h154z"/>
<glyph glyph-name="lcommaaccent" horiz-adv-x="268" unicode="ļ" d="M31 -259l46 191h140l-83 -206zM211 755v-755h-151v755h151z"/>
<glyph glyph-name="Lcaron" horiz-adv-x="568" unicode="Ľ" d="M312 531l33 193h138l-66 -202zM228 724v-594h310v-130h-464v724h154z"/>
<glyph glyph-name="lcaron" horiz-adv-x="396" unicode="ľ" d="M252 562l33 193h138l-66 -202zM211 755v-755h-151v755h151z"/>
<glyph glyph-name="Ldot" horiz-adv-x="568" unicode="Ŀ" d="M523 409q0 -45 -23.5 -69t-67.5 -24q-43 0 -66.5 24t-23.5 69q0 44 23.5 67t66.5 23q91 0 91 -90zM228 724v-594h310v-130h-464v724h154z"/>
<glyph glyph-name="ldot" horiz-adv-x="398" unicode="ŀ" d="M422 401q0 -43 -23 -66.5t-66 -23.5q-42 0 -65 23.5t-23 66.5t23 66t65 23q43 0 66 -23t23 -66zM211 755v-755h-151v755h151z"/>
<glyph glyph-name="Lslash" horiz-adv-x="568" unicode="Ł" d="M228 724v-283l195 79v-127l-195 -79v-184h310v-130h-464v252l-78 -31v126l78 31v346h154z"/>
<glyph glyph-name="lslash" horiz-adv-x="279" unicode="ł" d="M214 755v-247l65 32v-133l-65 -32v-375h-151v316l-63 -30v133l63 30v306h151z"/>
<glyph glyph-name="Nacute" horiz-adv-x="745" unicode="Ń" d="M562 916l-146 -148l-107 8l91 140h162zM672 0h-178l-279 511v-511h-141v724h184l274 -513v513h140v-724z"/>
<glyph glyph-name="nacute" d="M464 743l-135 -171l-101 9l75 162h161zM530 356v-356h-151v330q0 80 -69 80q-59 0 -102 -41v-369h-151v521h134l8 -52q70 63 166 63q86 0 125.5 -42.5t39.5 -133.5z" unicode="ń"/>
<glyph glyph-name="Ncommaaccent" horiz-adv-x="745" unicode="Ņ" d="M267 -259l46 191h140l-83 -206zM672 0h-178l-279 511v-511h-141v724h184l274 -513v513h140v-724z"/>
<glyph glyph-name="ncommaaccent" d="M185 -259l46 191h140l-83 -206zM530 356v-356h-151v330q0 80 -69 80q-59 0 -102 -41v-369h-151v521h134l8 -52q70 63 166 63q86 0 125.5 -42.5t39.5 -133.5z" unicode="ņ"/>
<glyph glyph-name="Ncaron" horiz-adv-x="745" unicode="Ň" d="M312 918l72 -72l75 73l102 -7l-107 -142h-140l-102 142zM672 0h-178l-279 511v-511h-141v724h184l274 -513v513h140v-724z"/>
<glyph glyph-name="ncaron" d="M132 736l102 5l73 -93l76 94l99 -6l-105 -164h-144zM530 356v-356h-151v330q0 80 -69 80q-59 0 -102 -41v-369h-151v521h134l8 -52q70 63 166 63q86 0 125.5 -42.5t39.5 -133.5z" unicode="ň"/>
<glyph glyph-name="napostrophe" horiz-adv-x="640" unicode="ŉ" d="M-25 510l44 178h129l-76 -191zM587 356v-356h-151v330q0 80 -69 80q-59 0 -102 -41v-369h-151v521h134l8 -52q70 63 166 63q86 0 125.5 -42.5t39.5 -133.5z"/>
<glyph glyph-name="Eng" horiz-adv-x="745" unicode="Ŋ" d="M478 -223q-89 0 -134 28l16 116q48 -20 88 -20q32 0 50.5 16t18.5 59v29l-302 506v-511h-141v724h184l274 -463v463h140v-765q0 -93 -53 -137.5t-141 -44.5z"/>
<glyph glyph-name="eng" d="M344 -223q-82 0 -123 28l11 113q42 -20 82 -20q65 0 65 78v354q0 80 -69 80q-59 0 -102 -41v-369h-151v521h134l8 -52q70 63 166 63q86 0 125.5 -42.5t39.5 -133.5v-397q0 -182 -186 -182z" unicode="ŋ"/>
<glyph glyph-name="Omacron" horiz-adv-x="760" unicode="Ō" d="M548 784h-317v103h317v-103zM381 118q183 0 183 246q0 243 -176 243q-90 0 -140.5 -61t-50.5 -184q0 -244 184 -244zM375 -12q-172 0 -254.5 100t-82.5 271q0 168 91.5 273t261.5 105q167 0 249.5 -101t82.5 -263q0 -181 -88 -283t-260 -102z"/>
<glyph glyph-name="omacron" horiz-adv-x="587" unicode="ō" d="M455 601h-311v102h311v-102zM295 100q51 0 76 37.5t25 126.5q0 83 -23.5 118.5t-74.5 35.5q-53 0 -79.5 -37t-26.5 -119q0 -87 23.5 -124.5t79.5 -37.5zM288 -12q-254 0 -254 270q0 129 67.5 201.5t200.5 72.5q129 0 190 -70.5t61 -192.5q0 -134 -64.5 -207.5 t-200.5 -73.5z"/>
<glyph glyph-name="Obreve" horiz-adv-x="760" unicode="Ŏ" d="M395 861q33 0 50.5 15t25.5 52l96 -6q-16 -153 -177 -153q-156 0 -166 151l100 10q6 -38 22 -53.5t49 -15.5zM381 118q183 0 183 246q0 243 -176 243q-90 0 -140.5 -61t-50.5 -184q0 -244 184 -244zM375 -12q-172 0 -254.5 100t-82.5 271q0 168 91.5 273t261.5 105 q167 0 249.5 -101t82.5 -263q0 -181 -88 -283t-260 -102z"/>
<glyph glyph-name="obreve" horiz-adv-x="587" unicode="ŏ" d="M380 737l96 -7q-6 -82 -52.5 -121.5t-125.5 -39.5q-161 0 -167 158l100 11q5 -42 22 -59.5t50 -17.5q35 0 53 16.5t24 59.5zM295 100q51 0 76 37.5t25 126.5q0 83 -23.5 118.5t-74.5 35.5q-53 0 -79.5 -37t-26.5 -119q0 -87 23.5 -124.5t79.5 -37.5zM288 -12 q-254 0 -254 270q0 129 67.5 201.5t200.5 72.5q129 0 190 -70.5t61 -192.5q0 -134 -64.5 -207.5t-200.5 -73.5z"/>
<glyph glyph-name="Ohungarumlaut" horiz-adv-x="760" unicode="Ő" d="M657 920l-153 -152l-101 8l92 144h162zM455 915l-107 -147l-97 12l50 135h154zM381 118q183 0 183 246q0 243 -176 243q-90 0 -140.5 -61t-50.5 -184q0 -244 184 -244zM375 -12q-172 0 -254.5 100t-82.5 271q0 168 91.5 273t261.5 105q167 0 249.5 -101t82.5 -263 q0 -181 -88 -283t-260 -102z"/>
<glyph glyph-name="ohungarumlaut" horiz-adv-x="587" unicode="ő" d="M569 747l-146 -175l-101 9l85 166h162zM368 743l-102 -171l-96 12l44 159h154zM295 100q51 0 76 37.5t25 126.5q0 83 -23.5 118.5t-74.5 35.5q-53 0 -79.5 -37t-26.5 -119q0 -87 23.5 -124.5t79.5 -37.5zM288 -12q-254 0 -254 270q0 129 67.5 201.5t200.5 72.5 q129 0 190 -70.5t61 -192.5q0 -134 -64.5 -207.5t-200.5 -73.5z"/>
<glyph glyph-name="OE" horiz-adv-x="1073" unicode="Œ" d="M381 117q179 0 183 238q1 252 -176 252q-90 0 -140.5 -61t-50.5 -184q0 -245 184 -245zM1041 0h-462v67q-76 -79 -204 -79q-172 0 -254.5 100t-82.5 271q0 167 91.5 272.5t254.5 105.5q121 0 195 -77v64h443v-129h-305v-170h287v-126h-287v-170h324v-129z"/>
<glyph glyph-name="oe" horiz-adv-x="899" unicode="œ" d="M547 319h162q1 104 -76 104q-36 0 -61 -25t-25 -79zM295 100q52 0 76.5 38t24.5 125q0 85 -23.5 120t-74.5 35q-53 0 -79.5 -37t-26.5 -119q0 -87 23.5 -124.5t79.5 -37.5zM643 -12q-119 0 -175 90q-61 -90 -188 -90q-126 0 -186 72.5t-60 197.5q0 127 68 200.5t190 73.5 q120 0 182 -87q60 87 175 87q107 0 161.5 -64.5t54.5 -175.5q0 -50 -3 -69h-317q2 -64 27.5 -91t77.5 -27q71 0 85 74l127 -31q-14 -74 -72 -117t-147 -43z"/>
<glyph glyph-name="Racute" horiz-adv-x="642" unicode="Ŕ" d="M468 916l-146 -148l-107 8l91 140h162zM227 396h79q131 0 131 109q0 51 -30.5 73t-94.5 22h-85v-204zM471 313l164 -313h-166l-143 275h-99v-275h-153v724h282q126 0 183 -57.5t57 -146.5q0 -149 -125 -207z"/>
<glyph glyph-name="racute" horiz-adv-x="393" unicode="ŕ" d="M376 743l-135 -171l-101 9l75 162h161zM387 531v-147q-9 1 -28 1q-90 0 -151 -48v-337h-151v521h129l11 -82q64 93 164 93q4 0 12.5 -0.5t13.5 -0.5z"/>
<glyph glyph-name="Rcommaaccent" horiz-adv-x="642" unicode="Ŗ" d="M228 -259l46 191h140l-83 -206zM227 396h79q131 0 131 109q0 51 -30.5 73t-94.5 22h-85v-204zM471 313l164 -313h-166l-143 275h-99v-275h-153v724h282q126 0 183 -57.5t57 -146.5q0 -149 -125 -207z"/>
<glyph glyph-name="rcommaaccent" horiz-adv-x="393" unicode="ŗ" d="M27 -259l46 191h140l-83 -206zM387 531v-147q-9 1 -28 1q-90 0 -151 -48v-337h-151v521h129l11 -82q64 93 164 93q4 0 12.5 -0.5t13.5 -0.5z"/>
<glyph glyph-name="Rcaron" horiz-adv-x="642" unicode="Ř" d="M230 918l72 -72l75 73l102 -7l-107 -142h-140l-102 142zM227 396h79q131 0 131 109q0 51 -30.5 73t-94.5 22h-85v-204zM471 313l164 -313h-166l-143 275h-99v-275h-153v724h282q126 0 183 -57.5t57 -146.5q0 -149 -125 -207z"/>
<glyph glyph-name="rcaron" horiz-adv-x="393" unicode="ř" d="M45 736l102 5l73 -93l76 94l99 -6l-105 -164h-144zM387 531v-147q-9 1 -28 1q-90 0 -151 -48v-337h-151v521h129l11 -82q64 93 164 93q4 0 12.5 -0.5t13.5 -0.5z"/>
<glyph glyph-name="Sacute" horiz-adv-x="596" unicode="Ś" d="M466 916l-146 -148l-107 8l91 140h162zM300 618q-108 0 -108 -77q0 -35 28 -58t69.5 -33.5t90.5 -27.5t90.5 -36.5t69.5 -63t28 -105.5q0 -115 -79 -172t-198 -57q-264 0 -280 230l140 21q10 -61 41 -95t103 -34q53 0 86.5 21t33.5 68q0 30 -21 50.5t-54 31.5t-73.5 20.5 t-80.5 24t-73 36t-54 61.5t-21 96q0 102 74.5 160t189.5 58q52 0 93.5 -9.5t78.5 -31.5t59.5 -65.5t26.5 -105.5l-141 -16q-4 54 -31.5 81.5t-87.5 27.5z"/>
<glyph glyph-name="sacute" horiz-adv-x="501" unicode="ś" d="M409 743l-135 -171l-101 9l75 162h161zM257 532q169 0 208 -138l-124 -39q-11 36 -30.5 53.5t-59.5 17.5q-66 0 -66 -46q0 -14 7 -23t24.5 -15.5t31 -10t43.5 -8.5q43 -8 68.5 -15t55.5 -23.5t44.5 -46.5t14.5 -74q0 -86 -64 -131t-165 -45q-191 0 -222 143l123 40 q22 -79 104 -79q75 0 75 49q0 27 -21 36.5t-76 19.5q-34 6 -55.5 11.5t-49.5 17.5t-44 28t-27.5 44t-11.5 64q0 82 62 126t155 44z"/>
<glyph glyph-name="Scircumflex" horiz-adv-x="596" unicode="Ŝ" d="M375 769l-72 72l-75 -73l-102 7l107 142h140l102 -142zM300 618q-108 0 -108 -77q0 -35 28 -58t69.5 -33.5t90.5 -27.5t90.5 -36.5t69.5 -63t28 -105.5q0 -115 -79 -172t-198 -57q-264 0 -280 230l140 21q10 -61 41 -95t103 -34q53 0 86.5 21t33.5 68q0 30 -21 50.5 t-54 31.5t-73.5 20.5t-80.5 24t-73 36t-54 61.5t-21 96q0 102 74.5 160t189.5 58q52 0 93.5 -9.5t78.5 -31.5t59.5 -65.5t26.5 -105.5l-141 -16q-4 54 -31.5 81.5t-87.5 27.5z"/>
<glyph glyph-name="scircumflex" horiz-adv-x="501" unicode="ŝ" d="M426 581l-100 -5l-73 94l-76 -95l-101 6l105 164h144zM257 532q169 0 208 -138l-124 -39q-11 36 -30.5 53.5t-59.5 17.5q-66 0 -66 -46q0 -14 7 -23t24.5 -15.5t31 -10t43.5 -8.5q43 -8 68.5 -15t55.5 -23.5t44.5 -46.5t14.5 -74q0 -86 -64 -131t-165 -45 q-191 0 -222 143l123 40q22 -79 104 -79q75 0 75 49q0 27 -21 36.5t-76 19.5q-34 6 -55.5 11.5t-49.5 17.5t-44 28t-27.5 44t-11.5 64q0 82 62 126t155 44z"/>
<glyph glyph-name="Scedilla" horiz-adv-x="596" unicode="Ş" d="M196 -232l15 70q28 -7 48 -7q50 0 50 37q0 22 -15 29t-49 8l11 85q-231 16 -245 228l140 21q10 -61 41 -95t103 -34q53 0 86.5 21t33.5 68q0 30 -21 50.5t-54 31.5t-73.5 20.5t-80.5 24t-73 36t-54 61.5t-21 96q0 102 74.5 160t189.5 58q52 0 93.5 -9.5t78.5 -31.5 t59.5 -65.5t26.5 -105.5l-141 -16q-4 54 -31.5 81.5t-87.5 27.5q-108 0 -108 -77q0 -35 28 -58t69.5 -33.5t90.5 -27.5t90.5 -36.5t69.5 -63t28 -105.5q0 -106 -67.5 -162t-172.5 -65l-4 -35q85 -15 85 -92q0 -53 -36 -81t-95 -28q-45 0 -82 14z"/>
<glyph glyph-name="scedilla" horiz-adv-x="501" unicode="ş" d="M149 -232l15 70q28 -7 48 -7q50 0 50 37q0 22 -15 29t-49 8l11 85q-160 13 -186 141l123 40q22 -79 104 -79q75 0 75 49q0 27 -21 36.5t-76 19.5q-34 6 -55.5 11.5t-49.5 17.5t-44 28t-27.5 44t-11.5 64q0 82 62 126t155 44q169 0 208 -138l-124 -39q-11 36 -30.5 53.5 t-59.5 17.5q-66 0 -66 -46q0 -14 7 -23t24.5 -15.5t31 -10t43.5 -8.5q43 -8 68.5 -15t55.5 -23.5t44.5 -46.5t14.5 -74q0 -78 -53 -121.5t-140 -52.5l-4 -35q85 -15 85 -92q0 -53 -36 -81t-95 -28q-45 0 -82 14z"/>
<glyph glyph-name="Scaron" horiz-adv-x="596" unicode="Š" d="M228 918l72 -72l75 73l102 -7l-107 -142h-140l-102 142zM300 618q-108 0 -108 -77q0 -35 28 -58t69.5 -33.5t90.5 -27.5t90.5 -36.5t69.5 -63t28 -105.5q0 -115 -79 -172t-198 -57q-264 0 -280 230l140 21q10 -61 41 -95t103 -34q53 0 86.5 21t33.5 68q0 30 -21 50.5 t-54 31.5t-73.5 20.5t-80.5 24t-73 36t-54 61.5t-21 96q0 102 74.5 160t189.5 58q52 0 93.5 -9.5t78.5 -31.5t59.5 -65.5t26.5 -105.5l-141 -16q-4 54 -31.5 81.5t-87.5 27.5z"/>
<glyph glyph-name="scaron" horiz-adv-x="501" unicode="š" d="M78 736l102 5l73 -93l76 94l99 -6l-105 -164h-144zM257 532q169 0 208 -138l-124 -39q-11 36 -30.5 53.5t-59.5 17.5q-66 0 -66 -46q0 -14 7 -23t24.5 -15.5t31 -10t43.5 -8.5q43 -8 68.5 -15t55.5 -23.5t44.5 -46.5t14.5 -74q0 -86 -64 -131t-165 -45q-191 0 -222 143 l123 40q22 -79 104 -79q75 0 75 49q0 27 -21 36.5t-76 19.5q-34 6 -55.5 11.5t-49.5 17.5t-44 28t-27.5 44t-11.5 64q0 82 62 126t155 44z"/>
<glyph glyph-name="uni0162" horiz-adv-x="595" unicode="Ţ" d="M200 -232l15 70q28 -7 48 -7q50 0 50 37q0 22 -15 29t-49 8l12 95h-40v594h-213v130h579v-130h-211v-594h-42l-6 -45q85 -15 85 -92q0 -53 -36 -81t-95 -28q-45 0 -82 14z"/>
<glyph glyph-name="uni0163" horiz-adv-x="412" unicode="ţ" d="M138 -232l15 70q28 -7 48 -7q50 0 50 37q0 22 -15 29t-49 8l11 88q-113 22 -113 164v254h-78v110h78v154l151 20v-174h138v-110h-138v-233q0 -37 13 -53.5t48 -16.5q46 0 86 24l21 -107q-47 -32 -134 -36l-4 -34q85 -15 85 -92q0 -53 -36 -81t-95 -28q-45 0 -82 14z"/>
<glyph glyph-name="Tcaron" horiz-adv-x="595" unicode="Ť" d="M224 918l72 -72l75 73l102 -7l-107 -142h-140l-102 142zM376 0h-155v594h-213v130h579v-130h-211v-594z"/>
<glyph glyph-name="tcaron" horiz-adv-x="412" unicode="ť" d="M278 581l33 193h138l-66 -202zM383 132l21 -107q-59 -37 -153 -37q-83 0 -124.5 40.5t-41.5 128.5v254h-78v110h78v154l151 20v-174h138v-110h-138v-233q0 -37 13 -53.5t48 -16.5q46 0 86 24z"/>
<glyph glyph-name="Tbar" horiz-adv-x="595" unicode="Ŧ" d="M376 0h-155v295h-142v124h142v175h-213v130h579v-130h-211v-175h140v-124h-140v-295z"/>
<glyph glyph-name="tbar" horiz-adv-x="412" unicode="ŧ" d="M383 132l21 -107q-59 -37 -153 -37q-83 0 -124.5 40.5t-41.5 128.5v69h-78v106h78v79h-78v110h78v154l151 20v-174h138v-110h-138v-79h138v-106h-138v-48q0 -37 13 -53.5t48 -16.5q46 0 86 24z"/>
<glyph glyph-name="Utilde" horiz-adv-x="708" unicode="Ũ" d="M278 930q35 0 81.5 -21.5t66.5 -21.5q17 0 23.5 9.5t6.5 34.5l76 -4q2 -20 2 -28q0 -53 -23.5 -83t-69.5 -30q-38 0 -86 22t-66 22q-29 0 -29 -32q0 -9 1 -15l-82 3q-2 18 -2 27q0 54 27.5 85.5t73.5 31.5zM356 117q74 0 103 38t29 128v441h154v-463q0 -273 -292 -273 q-149 0 -217 67t-68 210v459h155v-438q0 -89 29 -129t107 -40z"/>
<glyph glyph-name="utilde" horiz-adv-x="578" unicode="ũ" d="M211 732q35 0 81.5 -22t66.5 -22q17 0 23.5 9.5t6.5 34.5l76 -4q2 -20 2 -28q0 -53 -23.5 -83t-69.5 -30q-38 0 -86 22t-66 22q-29 0 -29 -32q0 -9 1 -15l-82 3q-2 18 -2 27q0 54 27.5 86t73.5 32zM55 162v359h151v-329q0 -43 15 -62t51 -19q56 0 99 41v369h151v-521 h-130l-11 56q-58 -67 -166 -67q-160 0 -160 173z"/>
<glyph glyph-name="Umacron" horiz-adv-x="708" unicode="Ū" d="M511 784h-317v103h317v-103zM356 117q74 0 103 38t29 128v441h154v-463q0 -273 -292 -273q-149 0 -217 67t-68 210v459h155v-438q0 -89 29 -129t107 -40z"/>
<glyph glyph-name="umacron" horiz-adv-x="578" unicode="ū" d="M442 601h-311v102h311v-102zM55 162v359h151v-329q0 -43 15 -62t51 -19q56 0 99 41v369h151v-521h-130l-11 56q-58 -67 -166 -67q-160 0 -160 173z"/>
<glyph glyph-name="Ubreve" horiz-adv-x="708" unicode="Ŭ" d="M358 861q33 0 50.5 15t25.5 52l96 -6q-16 -153 -177 -153q-156 0 -166 151l100 10q6 -38 22 -53.5t49 -15.5zM356 117q74 0 103 38t29 128v441h154v-463q0 -273 -292 -273q-149 0 -217 67t-68 210v459h155v-438q0 -89 29 -129t107 -40z"/>
<glyph glyph-name="ubreve" horiz-adv-x="578" unicode="ŭ" d="M366 737l96 -7q-6 -82 -52.5 -121.5t-125.5 -39.5q-161 0 -167 158l100 11q5 -42 22 -59.5t50 -17.5q35 0 53 16.5t24 59.5zM55 162v359h151v-329q0 -43 15 -62t51 -19q56 0 99 41v369h151v-521h-130l-11 56q-58 -67 -166 -67q-160 0 -160 173z"/>
<glyph glyph-name="Uring" horiz-adv-x="708" unicode="Ů" d="M353 788q47 0 47 49q0 46 -47 46q-22 0 -35.5 -12t-13.5 -35q0 -48 49 -48zM469 835q0 -52 -31.5 -80t-84.5 -28q-52 0 -83.5 27t-31.5 77q0 53 33 82t82 29q51 0 83.5 -27.5t32.5 -79.5zM356 117q74 0 103 38t29 128v441h154v-463q0 -273 -292 -273q-149 0 -217 67 t-68 210v459h155v-438q0 -89 29 -129t107 -40z"/>
<glyph glyph-name="uring" horiz-adv-x="578" unicode="ů" d="M288 630q44 0 44 45q0 42 -44 42q-20 0 -32.5 -11.5t-12.5 -31.5q0 -44 45 -44zM401 675q0 -50 -30.5 -77.5t-82.5 -27.5q-51 0 -81.5 26.5t-30.5 74.5q0 52 32 80.5t80 28.5q49 0 81 -27.5t32 -77.5zM55 162v359h151v-329q0 -43 15 -62t51 -19q56 0 99 41v369h151v-521 h-130l-11 56q-58 -67 -166 -67q-160 0 -160 173z"/>
<glyph glyph-name="Uhungarumlaut" horiz-adv-x="708" unicode="Ű" d="M620 920l-153 -152l-101 8l92 144h162zM418 915l-107 -147l-97 12l50 135h154zM356 117q74 0 103 38t29 128v441h154v-463q0 -273 -292 -273q-149 0 -217 67t-68 210v459h155v-438q0 -89 29 -129t107 -40z"/>
<glyph glyph-name="uhungarumlaut" horiz-adv-x="578" unicode="ű" d="M557 747l-146 -175l-101 9l85 166h162zM356 743l-102 -171l-96 12l44 159h154zM55 162v359h151v-329q0 -43 15 -62t51 -19q56 0 99 41v369h151v-521h-130l-11 56q-58 -67 -166 -67q-160 0 -160 173z"/>
<glyph glyph-name="Uogonek" horiz-adv-x="708" unicode="Ų" d="M491 -109l65 -30q-17 -48 -54 -74.5t-86 -26.5q-57 0 -86.5 25.5t-29.5 72.5q0 68 77 131q-9 -1 -27 -1q-149 0 -217 67t-68 210v459h155v-438q0 -89 29 -129t107 -40q74 0 103 38t29 128v441h154v-463q0 -92 -32.5 -150.5t-95.5 -98.5q-46 -30 -74 -65t-28 -64 q0 -33 31 -33q30 0 48 41z"/>
<glyph glyph-name="uogonek" horiz-adv-x="578" unicode="ų" d="M503 -109l65 -30q-17 -48 -54 -74.5t-86 -26.5q-57 0 -86.5 25.5t-29.5 72.5q0 69 80 142l-11 56q-58 -67 -166 -67q-160 0 -160 173v359h151v-329q0 -43 15 -62t51 -19q56 0 99 41v369h151v-521q-41 -21 -69.5 -54t-28.5 -63q0 -33 31 -33q30 0 48 41z"/>
<glyph glyph-name="Wcircumflex" horiz-adv-x="964" unicode="Ŵ" d="M557 769l-72 72l-75 -73l-102 7l107 142h140l102 -142zM801 0h-197l-117 499h-4l-116 -499h-203l-156 724h161l102 -558h4l129 558h165l133 -561h5l94 561h155z"/>
<glyph glyph-name="wcircumflex" horiz-adv-x="813" unicode="ŵ" d="M584 581l-100 -5l-73 94l-76 -95l-101 6l105 164h144zM329 0h-179l-154 521h151l95 -366h2l92 366h148l92 -364h3l91 364h147l-155 -521h-170l-84 340h-2z"/>
<glyph glyph-name="Ycircumflex" horiz-adv-x="606" unicode="Ŷ" d="M382 769l-72 72l-75 -73l-102 7l107 142h140l102 -142zM388 273v-273h-155v271l-251 453h169l159 -310h5l153 310h156z"/>
<glyph glyph-name="ycircumflex" horiz-adv-x="526" unicode="ŷ" d="M437 581l-100 -5l-73 94l-76 -95l-101 6l105 164h144zM194 -11l-198 532h163l109 -363h3l105 363h155q-65 -184 -207 -572q-35 -95 -76.5 -133.5t-119.5 -38.5q-68 0 -114 22l11 109q50 -16 79 -16q52 0 74 56z"/>
<glyph glyph-name="Ydieresis" horiz-adv-x="606" unicode="Ÿ" d="M514 858q0 -38 -24 -60.5t-64 -22.5q-41 0 -65.5 22.5t-24.5 60.5t24.5 61t65.5 23q40 0 64 -23t24 -61zM279 858q0 -38 -24.5 -60.5t-63.5 -22.5q-41 0 -66 22.5t-25 60.5t25 61t66 23q39 0 63.5 -23t24.5 -61zM388 273v-273h-155v271l-251 453h169l159 -310h5l153 310 h156z"/>
<glyph glyph-name="Zacute" horiz-adv-x="592" unicode="Ź" d="M447 916l-146 -148l-107 8l91 140h162zM549 609l-337 -479h351v-130h-536v113l343 482h-334v129h513v-115z"/>
<glyph glyph-name="zacute" horiz-adv-x="466" unicode="ź" d="M388 743l-135 -171l-101 9l75 162h161zM431 414l-232 -293h246v-121h-418v107l240 301h-238v113h402v-107z"/>
<glyph glyph-name="Zdotaccent" horiz-adv-x="592" unicode="Ż" d="M372 868q0 -45 -23.5 -69t-67.5 -24q-43 0 -66.5 24t-23.5 69q0 44 23.5 67t66.5 23q91 0 91 -90zM549 609l-337 -479h351v-130h-536v113l343 482h-334v129h513v-115z"/>
<glyph glyph-name="zdotaccent" horiz-adv-x="466" unicode="ż" d="M322 681q0 -44 -23.5 -68t-67.5 -24q-43 0 -66.5 24t-23.5 68t23.5 67.5t66.5 23.5q91 0 91 -91zM431 414l-232 -293h246v-121h-418v107l240 301h-238v113h402v-107z"/>
<glyph glyph-name="Zcaron" horiz-adv-x="592" unicode="Ž" d="M209 918l72 -72l75 73l102 -7l-107 -142h-140l-102 142zM549 609l-337 -479h351v-130h-536v113l343 482h-334v129h513v-115z"/>
<glyph glyph-name="zcaron" horiz-adv-x="466" unicode="ž" d="M57 736l102 5l73 -93l76 94l99 -6l-105 -164h-144zM431 414l-232 -293h246v-121h-418v107l240 301h-238v113h402v-107z"/>
<glyph glyph-name="longs" horiz-adv-x="299" unicode="ſ" d="M364 747l-6 -107q-37 13 -70 13q-40 0 -60 -18t-20 -68v-567h-151v581q0 93 51 139t141 46q75 0 115 -19z"/>
<glyph glyph-name="florin" horiz-adv-x="578" unicode="ƒ" d="M594 608l-119 -43q-8 34 -20 51t-37 17q-26 0 -40 -15t-20 -49l-23 -121h131l-15 -97h-132l-68 -355q-17 -92 -63.5 -134.5t-140.5 -42.5q-136 0 -170 130l120 42q8 -33 20 -49.5t39 -16.5q26 0 38.5 14t19.5 49l69 363h-92l16 97h93l22 111q19 93 64.5 135.5t138.5 42.5 q135 0 169 -129z"/>
<glyph glyph-name="Aringacute" horiz-adv-x="709" unicode="Ǻ" d="M346 747q51 0 51 53q0 50 -51 50q-24 0 -39 -13t-15 -38q0 -52 54 -52zM518 1089l-146 -148l-107 8l91 140h162zM438 299l-90 280h-4l-89 -280h183zM472 798q0 -49 -27 -79l254 -719h-169l-60 176h-241l-56 -176h-159l234 717q-27 30 -27 76q0 58 35.5 89.5t89.5 31.5 t90 -30.5t36 -85.5z"/>
<glyph glyph-name="aringacute" horiz-adv-x="558" unicode="ǻ" d="M431 952l-146 -148l-107 8l91 140h162zM270 627q44 0 44 45q0 42 -44 42q-20 0 -32.5 -11.5t-12.5 -31.5q0 -44 45 -44zM383 672q0 -50 -30.5 -77.5t-82.5 -27.5q-51 0 -81.5 26.5t-30.5 74.5q0 52 32 80.5t80 28.5q49 0 81 -27.5t32 -77.5zM334 129v92h-24 q-61 -3 -92.5 -17.5t-31.5 -51.5q0 -57 61 -57q53 0 87 34zM481 348v-218q0 -23 6 -31.5t25 -8.5q12 0 31 6l4 -87q-36 -20 -96 -20q-92 0 -107 66q-51 -67 -155 -67q-46 0 -78.5 14t-48 36.5t-22 44t-6.5 44.5q0 46 19 80t47.5 53t70.5 30.5t79.5 15t82.5 3.5v19 q0 50 -14 72.5t-60 22.5q-37 0 -53.5 -16t-25.5 -56l-128 25q12 77 64.5 116.5t155.5 39.5q107 0 158 -43.5t51 -140.5z"/>
<glyph glyph-name="AEacute" horiz-adv-x="1003" unicode="Ǽ" d="M828 916l-146 -148l-107 8l91 140h162zM490 408v186h-43l-90 -186h133zM644 288v-158h324v-130h-478v286h-178l-136 -286h-163l353 724h583v-130h-305v-181h287v-125h-287z"/>
<glyph glyph-name="aeacute" horiz-adv-x="838" unicode="ǽ" d="M589 743l-135 -171l-101 9l75 162h161zM486 319h162v10q0 94 -76 94q-36 0 -61 -25.5t-25 -78.5zM247 95q55 0 102 40q-13 31 -18 86h-21q-61 -3 -92.5 -17.5t-31.5 -51.5q0 -57 61 -57zM580 -12q-131 0 -194 78q-79 -78 -191 -78q-48 0 -82 14t-50 36.5t-22.5 44 t-6.5 44.5q0 47 18.5 81t45.5 52.5t69.5 29.5t79.5 14t86 3v21q0 50 -14 72.5t-60 22.5q-37 0 -53.5 -16t-25.5 -56l-128 25q12 77 64.5 116.5t155.5 39.5q105 0 148 -71q26 33 71 52t98 19q108 0 161.5 -64.5t53.5 -176.5q0 -44 -3 -63h-317q1 -66 27 -94.5t78 -28.5 q39 0 57.5 18.5t27.5 55.5l127 -31q-15 -74 -72 -117t-149 -43z"/>
<glyph glyph-name="Oslashacute" horiz-adv-x="760" unicode="Ǿ" d="M555 916l-146 -148l-107 8l91 140h162zM381 118q183 0 183 246q0 111 -39 173l-174 -418q11 -1 30 -1zM197 362q0 -116 40 -175l174 418q-14 2 -23 2q-90 0 -140.5 -61t-50.5 -184zM375 -12q-40 0 -76 6l-27 -66h-143l46 112q-137 91 -137 319q0 168 91.5 273t261.5 105 q39 0 72 -6l27 63h142l-46 -110q137 -92 137 -311q0 -181 -88 -283t-260 -102z"/>
<glyph glyph-name="oslashacute" horiz-adv-x="587" unicode="ǿ" d="M192 262q0 -55 7 -84l106 240h-7q-53 0 -79.5 -37t-26.5 -119zM295 100q51 0 76 37.5t25 126.5q0 60 -12 94l-113 -256q16 -2 24 -2zM457 743l-135 -171l-101 9l75 162h161zM288 -12q-32 0 -65 5l-28 -65h-106l43 99q-98 64 -98 231q0 129 67.5 201.5t200.5 72.5 q31 0 52 -4l26 58h105l-39 -88q107 -61 107 -229q0 -134 -64.5 -207.5t-200.5 -73.5z"/>
<glyph glyph-name="Scommaaccent" horiz-adv-x="596" unicode="Ș" d="M195 -259l46 191h140l-83 -206zM300 618q-108 0 -108 -77q0 -35 28 -58t69.5 -33.5t90.5 -27.5t90.5 -36.5t69.5 -63t28 -105.5q0 -115 -79 -172t-198 -57q-264 0 -280 230l140 21q10 -61 41 -95t103 -34q53 0 86.5 21t33.5 68q0 30 -21 50.5t-54 31.5t-73.5 20.5 t-80.5 24t-73 36t-54 61.5t-21 96q0 102 74.5 160t189.5 58q52 0 93.5 -9.5t78.5 -31.5t59.5 -65.5t26.5 -105.5l-141 -16q-4 54 -31.5 81.5t-87.5 27.5z"/>
<glyph glyph-name="scommaaccent" horiz-adv-x="501" unicode="ș" d="M147 -259l46 191h140l-83 -206zM257 532q169 0 208 -138l-124 -39q-11 36 -30.5 53.5t-59.5 17.5q-66 0 -66 -46q0 -14 7 -23t24.5 -15.5t31 -10t43.5 -8.5q43 -8 68.5 -15t55.5 -23.5t44.5 -46.5t14.5 -74q0 -86 -64 -131t-165 -45q-191 0 -222 143l123 40 q22 -79 104 -79q75 0 75 49q0 27 -21 36.5t-76 19.5q-34 6 -55.5 11.5t-49.5 17.5t-44 28t-27.5 44t-11.5 64q0 82 62 126t155 44z"/>
<glyph glyph-name="uni021A" horiz-adv-x="595" unicode="Ț" d="M191 -259l46 191h140l-83 -206zM376 0h-155v594h-213v130h579v-130h-211v-594z"/>
<glyph glyph-name="uni021B" horiz-adv-x="412" unicode="ț" d="M125 -259l46 191h140l-83 -206zM383 132l21 -107q-59 -37 -153 -37q-83 0 -124.5 40.5t-41.5 128.5v254h-78v110h78v154l151 20v-174h138v-110h-138v-233q0 -37 13 -53.5t48 -16.5q46 0 86 24z"/>
<glyph glyph-name="dotlessj" horiz-adv-x="266" unicode="ȷ" d="M25 -223q-82 0 -123 28l11 113q43 -20 82 -20q65 0 65 78v545h151v-562q0 -182 -186 -182z"/>
<glyph glyph-name="apostrophe" horiz-adv-x="500" unicode="ʼ" d="M154 521l47 192h140l-83 -206z"/>
<glyph glyph-name="circumflex" horiz-adv-x="500" unicode="ˆ" d="M424 581l-100 -5l-73 94l-76 -95l-101 6l105 164h144z"/>
<glyph glyph-name="caron" horiz-adv-x="500" unicode="ˇ" d="M76 736l102 5l73 -93l76 94l99 -6l-105 -164h-144z"/>
<glyph glyph-name="uni02C9" horiz-adv-x="500" unicode="ˉ" d="M405 599h-311v102h311v-102z"/>
<glyph glyph-name="breve" horiz-adv-x="500" unicode="˘" d="M330 737l96 -7q-6 -82 -52.5 -121.5t-125.5 -39.5q-161 0 -167 158l100 11q5 -42 22 -59.5t50 -17.5q35 0 53 16.5t24 59.5z"/>
<glyph glyph-name="dotaccent" horiz-adv-x="500" unicode="˙" d="M341 681q0 -44 -23.5 -68t-67.5 -24q-43 0 -66.5 24t-23.5 68t23.5 67.5t66.5 23.5q91 0 91 -91z"/>
<glyph glyph-name="ring" horiz-adv-x="500" unicode="˚" d="M250 630q44 0 44 45q0 42 -44 42q-20 0 -32.5 -11.5t-12.5 -31.5q0 -44 45 -44zM363 675q0 -50 -30.5 -77.5t-82.5 -27.5q-51 0 -81.5 26.5t-30.5 74.5q0 52 32 80.5t80 28.5q49 0 81 -27.5t32 -77.5z"/>
<glyph glyph-name="ogonek" horiz-adv-x="500" unicode="˛" d="M317 -109l65 -30q-17 -48 -54 -74.5t-86 -26.5q-57 0 -86.5 25.5t-29.5 72.5q0 82 126 165l71 -17q-46 -44 -65.5 -70t-19.5 -53q0 -33 31 -33q30 0 48 41z"/>
<glyph glyph-name="tilde" horiz-adv-x="500" unicode="˜" d="M173 732q35 0 81.5 -22t66.5 -22q17 0 23.5 9.5t6.5 34.5l76 -4q2 -20 2 -28q0 -53 -23.5 -83t-69.5 -30q-38 0 -86 22t-66 22q-29 0 -29 -32q0 -9 1 -15l-82 3q-2 18 -2 27q0 54 27.5 86t73.5 32z"/>
<glyph glyph-name="hungarumlaut" horiz-adv-x="500" unicode="˝" d="M519 747l-146 -175l-101 9l85 166h162zM318 743l-102 -171l-96 12l44 159h154z"/>
<glyph glyph-name="Wgrave" horiz-adv-x="964" unicode="Ẁ" d="M463 768l-146 148h162l91 -140zM801 0h-197l-117 499h-4l-116 -499h-203l-156 724h161l102 -558h4l129 558h165l133 -561h5l94 561h155z"/>
<glyph glyph-name="wgrave" horiz-adv-x="813" unicode="ẁ" d="M390 572l-135 171h162l74 -162zM329 0h-179l-154 521h151l95 -366h2l92 366h148l92 -364h3l91 364h147l-155 -521h-170l-84 340h-2z"/>
<glyph glyph-name="Wacute" horiz-adv-x="964" unicode="Ẃ" d="M648 916l-146 -148l-107 8l91 140h162zM801 0h-197l-117 499h-4l-116 -499h-203l-156 724h161l102 -558h4l129 558h165l133 -561h5l94 561h155z"/>
<glyph glyph-name="wacute" horiz-adv-x="813" unicode="ẃ" d="M567 743l-135 -171l-101 9l75 162h161zM329 0h-179l-154 521h151l95 -366h2l92 366h148l92 -364h3l91 364h147l-155 -521h-170l-84 340h-2z"/>
<glyph glyph-name="Wdieresis" horiz-adv-x="964" unicode="Ẅ" d="M689 858q0 -38 -24 -60.5t-64 -22.5q-41 0 -65.5 22.5t-24.5 60.5t24.5 61t65.5 23q40 0 64 -23t24 -61zM454 858q0 -38 -24.5 -60.5t-63.5 -22.5q-41 0 -66 22.5t-25 60.5t25 61t66 23q39 0 63.5 -23t24.5 -61zM801 0h-197l-117 499h-4l-116 -499h-203l-156 724h161 l102 -558h4l129 558h165l133 -561h5l94 561h155z"/>
<glyph glyph-name="wdieresis" horiz-adv-x="813" unicode="ẅ" d="M616 679q0 -38 -24 -60.5t-64 -22.5q-41 0 -65.5 22.5t-24.5 60.5t24.5 61t65.5 23q40 0 64 -23t24 -61zM381 679q0 -38 -24.5 -60.5t-63.5 -22.5q-41 0 -66 22.5t-25 60.5t25 61t66 23q39 0 63.5 -23t24.5 -61zM329 0h-179l-154 521h151l95 -366h2l92 366h148l92 -364h3 l91 364h147l-155 -521h-170l-84 340h-2z"/>
<glyph glyph-name="Ygrave" horiz-adv-x="606" unicode="Ỳ" d="M288 768l-146 148h162l91 -140zM388 273v-273h-155v271l-251 453h169l159 -310h5l153 310h156z"/>
<glyph glyph-name="ygrave" horiz-adv-x="526" unicode="ỳ" d="M243 572l-135 171h162l74 -162zM194 -11l-198 532h163l109 -363h3l105 363h155q-65 -184 -207 -572q-35 -95 -76.5 -133.5t-119.5 -38.5q-68 0 -114 22l11 109q50 -16 79 -16q52 0 74 56z"/>
<glyph glyph-name="endash" horiz-adv-x="500" unicode="–" d="M500 225h-500v111h500v-111z"/>
<glyph glyph-name="emdash" horiz-adv-x="1000" unicode="—" d="M1000 225h-1000v111h1000v-111z"/>
<glyph glyph-name="quoteleft" horiz-adv-x="218" unicode="‘" d="M217 779l-53 -233h-145l89 245z"/>
<glyph glyph-name="quoteright" horiz-adv-x="218" unicode="’" d="M18 541l53 233h145l-89 -245z"/>
<glyph glyph-name="quotesinglbase" horiz-adv-x="214" unicode="‚" d="M2 -138l53 233h145l-89 -245z"/>
<glyph glyph-name="quotedblleft" horiz-adv-x="401" unicode="“" d="M217 779l-53 -233h-145l89 245zM401 779l-53 -233h-145l89 245z"/>
<glyph glyph-name="quotedblright" horiz-adv-x="401" unicode="”" d="M18 541l53 233h145l-89 -245zM200 541l53 233h145l-89 -245z"/>
<glyph glyph-name="quotedblbase" horiz-adv-x="399" unicode="„" d="M186 -138l53 233h145l-89 -245zM2 -138l53 233h145l-89 -245z"/>
<glyph glyph-name="bullet" horiz-adv-x="460" unicode="•" d="M381 279q0 -146 -151 -146t-151 146q0 147 151 147t151 -147z"/>
<glyph glyph-name="guilsinglleft" horiz-adv-x="279" unicode="‹" d="M244 103h-121l-86 154l89 151h122l-88 -147z"/>
<glyph glyph-name="guilsinglright" horiz-adv-x="279" unicode="›" d="M31 408h122l89 -153l-87 -152h-120l84 153z"/>
<glyph glyph-name="fraction" horiz-adv-x="184" unicode="⁄" d="M-21 -12h-139l354 736h138z"/>
<glyph glyph-name="zerosuperior" horiz-adv-x="430" unicode="⁰" d="M215 440q26 0 36 29t10 109q0 79 -9.5 106.5t-34.5 27.5q-27 0 -37 -27t-10 -107q0 -81 9.5 -109.5t35.5 -28.5zM212 342q-92 0 -136.5 57t-44.5 180q0 230 188 230q96 0 138 -54t42 -174q0 -125 -45 -182t-142 -57z"/>
<glyph glyph-name="foursuperior" horiz-adv-x="432" unicode="⁴" d="M137 541h98v150zM363 349h-128v92h-208v89l176 271h159v-260h52v-100h-51v-92z"/>
<glyph glyph-name="fivesuperior" horiz-adv-x="411" unicode="⁵" d="M51 551l16 250h270v-105h-179l-12 -90l2 -4q36 36 93 36q58 0 91 -34.5t33 -102.5q0 -75 -50.5 -117t-129.5 -42q-67 0 -112.5 29.5t-53.5 96.5l112 19q4 -51 53 -51q23 0 37.5 15.5t14.5 42.5q0 54 -46 54q-29 0 -53 -24z"/>
<glyph glyph-name="sixsuperior" horiz-adv-x="430" unicode="⁶" d="M177 521q1 -44 11.5 -65t36.5 -21q39 0 39 54q0 28 -8.5 41.5t-30.5 13.5q-25 0 -48 -23zM395 694l-116 -24q-5 48 -42 48q-65 0 -66 -130q37 39 101 39q52 0 87.5 -30.5t35.5 -97.5q0 -80 -49 -118.5t-125 -38.5q-174 0 -174 225q0 45 9 84.5t30 76.5t61.5 59t97.5 22 q130 0 150 -115z"/>
<glyph glyph-name="sevensuperior" horiz-adv-x="379" unicode="⁷" d="M183 349h-140l174 347h-186v105h323v-95z"/>
<glyph glyph-name="eightsuperior" horiz-adv-x="419" unicode="⁸" d="M234 639q33 21 33 50q0 35 -47 35q-21 0 -32.5 -9t-11.5 -24q0 -30 58 -52zM180 536q-36 -22 -36 -55q0 -22 15.5 -35t44.5 -13q52 0 52 40q0 22 -18.5 36t-57.5 27zM303 604q48 -19 71.5 -46.5t23.5 -73.5q0 -60 -53 -101t-143 -41q-86 0 -132.5 32.5t-46.5 87.5 q0 43 23.5 69t68.5 45q-74 29 -74 105q0 61 49.5 94.5t124.5 33.5q80 0 123 -28t43 -78q0 -67 -78 -99z"/>
<glyph glyph-name="ninesuperior" horiz-adv-x="427" unicode="⁹" d="M251 623q-3 49 -11.5 71t-33.5 22q-39 0 -39 -52q0 -60 41 -60q27 0 43 19zM31 458l116 30q4 -27 14.5 -40.5t34.5 -13.5q64 0 65 125q-39 -33 -97 -33q-56 0 -92 31t-36 99q0 77 51 115t127 38q93 0 131.5 -58.5t38.5 -166.5q0 -44 -7.5 -81.5t-27 -76.5t-60 -61.5 t-98.5 -22.5q-140 0 -160 116z"/>
<glyph glyph-name="plussuperior" horiz-adv-x="443" unicode="⁺" d="M270 433h-99v86h-84v95h84v83h99v-83h85v-95h-85v-86z"/>
<glyph glyph-name="minussuperior" horiz-adv-x="443" unicode="⁻" d="M352 521h-260v94h260v-94z"/>
<glyph glyph-name="equalsuperior" horiz-adv-x="445" unicode="⁼" d="M353 564h-261v94h261v-94zM353 430h-261v94h261v-94z"/>
<glyph glyph-name="parenleftsuperior" horiz-adv-x="292" unicode="⁽" d="M273 277l-132 -1q-42 51 -70.5 122t-28.5 148q0 79 27.5 144t80.5 134h128q-48 -63 -75 -126.5t-27 -148.5q0 -55 16.5 -109t33.5 -86t47 -77z"/>
<glyph glyph-name="parenrightsuperior" horiz-adv-x="309" unicode="⁾" d="M18 823q22 0 66 0.5t66 0.5q101 -127 101 -273q0 -78 -27.5 -143t-78.5 -132h-129q48 63 74.5 124.5t26.5 148.5q0 78 -26.5 141.5t-72.5 132.5z"/>
<glyph glyph-name="zeroinferior" horiz-adv-x="430" unicode="₀" d="M215 -56q26 0 36 29t10 109q0 79 -9.5 106.5t-34.5 27.5q-27 0 -37 -27t-10 -107q0 -81 9.5 -109.5t35.5 -28.5zM212 -154q-92 0 -136.5 57t-44.5 180q0 230 188 230q96 0 138 -54t42 -174q0 -125 -45 -182t-142 -57z"/>
<glyph glyph-name="oneinferior" horiz-adv-x="328" unicode="₁" d="M270 -149h-133v314q-14 -7 -48.5 -12.5t-52.5 -5.5l-5 104q97 7 142 52h97v-452z"/>
<glyph glyph-name="twoinferior" horiz-adv-x="405" unicode="₂" d="M203 313q80 0 119 -32t39 -88q0 -51 -30 -91.5t-106 -103.5l-32 -33v-4h175v-108h-327v108l97 97q53 53 71.5 78.5t18.5 47.5q0 34 -34 34q-42 0 -50 -57l-114 15q8 69 55.5 103t117.5 34z"/>
<glyph glyph-name="threeinferior" horiz-adv-x="412" unicode="₃" d="M22 -30l114 21q5 -50 52 -50q48 0 48 48q0 27 -12.5 38.5t-44.5 11.5h-50v86h31q70 0 70 59q0 36 -38 36t-49 -47l-110 20q21 120 172 120q75 0 115 -27.5t40 -81.5q0 -77 -87 -108v-3q98 -20 98 -107q0 -66 -50 -103t-131 -37q-66 0 -113 28.5t-55 95.5z"/>
<glyph glyph-name="fourinferior" horiz-adv-x="432" unicode="₄" d="M137 45h98v150zM363 -147h-128v92h-208v89l176 271h159v-260h52v-100h-51v-92z"/>
<glyph glyph-name="fiveinferior" horiz-adv-x="411" unicode="₅" d="M51 55l16 250h270v-105h-179l-12 -90l2 -4q36 36 93 36q58 0 91 -34.5t33 -102.5q0 -75 -50.5 -117t-129.5 -42q-67 0 -112.5 29.5t-53.5 96.5l112 19q4 -51 53 -51q23 0 37.5 15.5t14.5 42.5q0 54 -46 54q-29 0 -53 -24z"/>
<glyph glyph-name="sixinferior" horiz-adv-x="430" unicode="₆" d="M177 25q1 -44 11.5 -65t36.5 -21q39 0 39 54q0 28 -8.5 41.5t-30.5 13.5q-25 0 -48 -23zM395 198l-116 -24q-5 48 -42 48q-65 0 -66 -130q37 39 101 39q52 0 87.5 -30.5t35.5 -97.5q0 -80 -49 -118.5t-125 -38.5q-174 0 -174 225q0 45 9 84.5t30 76.5t61.5 59t97.5 22 q130 0 150 -115z"/>
<glyph glyph-name="seveninferior" horiz-adv-x="379" unicode="₇" d="M183 -147h-140l174 347h-186v105h323v-95z"/>
<glyph glyph-name="eightinferior" horiz-adv-x="419" unicode="₈" d="M234 143q33 21 33 50q0 35 -47 35q-21 0 -32.5 -9t-11.5 -24q0 -30 58 -52zM180 40q-36 -22 -36 -55q0 -22 15.5 -35t44.5 -13q52 0 52 40q0 22 -18.5 36t-57.5 27zM303 108q48 -19 71.5 -46.5t23.5 -73.5q0 -60 -53 -101t-143 -41q-86 0 -132.5 32.5t-46.5 87.5 q0 43 23.5 69t68.5 45q-74 29 -74 105q0 61 49.5 94.5t124.5 33.5q80 0 123 -28t43 -78q0 -67 -78 -99z"/>
<glyph glyph-name="nineinferior" horiz-adv-x="427" unicode="₉" d="M251 127q-3 49 -11.5 71t-33.5 22q-39 0 -39 -52q0 -60 41 -60q27 0 43 19zM31 -38l116 30q4 -27 14.5 -40.5t34.5 -13.5q64 0 65 125q-39 -33 -97 -33q-56 0 -92 31t-36 99q0 77 51 115t127 38q93 0 131.5 -58.5t38.5 -166.5q0 -44 -7.5 -81.5t-27 -76.5t-60 -61.5 t-98.5 -22.5q-140 0 -160 116z"/>
<glyph glyph-name="parenleftinferior" horiz-adv-x="292" unicode="₍" d="M273 -219l-132 -1q-42 51 -70.5 122t-28.5 148q0 79 27.5 144t80.5 134h128q-48 -63 -75 -126.5t-27 -148.5q0 -55 16.5 -109t33.5 -86t47 -77z"/>
<glyph glyph-name="parenrightinferior" horiz-adv-x="309" unicode="₎" d="M18 327q22 0 66 0.5t66 0.5q101 -127 101 -273q0 -78 -27.5 -143t-78.5 -132h-129q48 63 74.5 124.5t26.5 148.5q0 78 -26.5 141.5t-72.5 132.5z"/>
<glyph glyph-name="Euro" horiz-adv-x="645" unicode="€" d="M372 -12q-117 0 -183 61t-86 186h-93l15 88h70v62h-62l15 88h56q23 129 95 197t188 68q227 0 238 -238l-132 -14q-5 71 -29 99.5t-78 28.5q-107 0 -132 -141h194l-15 -88h-187v-62h179l-15 -88h-154q13 -63 42.5 -92.5t80.5 -29.5q54 0 79 27.5t38 87.5l126 -22 q-8 -61 -33 -105.5t-61.5 -68t-75 -34t-80.5 -10.5z"/>
<glyph glyph-name="uni2215" horiz-adv-x="454" unicode="∕" d="M138 -17h-130l313 648h129z"/>
</font>
</defs>
</svg>
